<?xml version="1.0" encoding="utf-8"?>
<!-- Generator: Adobe Illustrator 20.1.0, SVG Export Plug-In . SVG Version: 6.00 Build 0)  -->
<svg version="1.1" xmlns="http://www.w3.org/2000/svg" xmlns:xlink="http://www.w3.org/1999/xlink" x="0px" y="0px"
	 viewBox="0 0 1893.7 810" style="enable-background:new 0 0 1893.7 810;" xml:space="preserve">
<style type="text/css">
	.st0{fill:#FF8C54;}
	.st1{fill:#FF4730;}
	.st2{fill:#4100C3;}
</style>
<g id="Layer_02">
	<rect class="st0" width="1893.7" height="810"/>
</g>
<g id="Layer_01">
	<path class="st1" d="M0,219.4c56.5,48.5,125.2,85.6,190.8,92.8c86.9,9.6,168.2-33.3,301.4,21.4s318.3,207.1,461.1,240.5
		c142.8,33.3,243.3-52.5,302-145.6c58.7-93.1,75.6-193.6,45.2-301.4c-12.1-42.7-31.6-86.6-61.8-127.1C825.8,0,412.9,0,0,0
		C0,73.1,0,146.2,0,219.4z"/>
</g>
<g id="Layer_03">
	<path class="st2" d="M521.3,810c0,20.5,0,41.1,0,61.6c485.4,0,970.8,0,1456.2,0c0-107.7,0-215.5,0-323.2c-28,0-55.9,0-83.9,0
		c-71.8-18.7-164.9-13.5-247.3-30.7c-105.5-22-193.6-80.7-289.6-83.5c-96-2.8-199.8,50.2-267.5,59.8c-67.7,9.6-99.3-24.3-176.1-6.8
		c-76.8,17.5-198.7,86.4-291.8,180.6C577.1,712.5,539.4,762.9,521.3,810z"/>
</g>
</svg>
