<?xml version="1.0" encoding="utf-8"?>
<!-- Generator: Adobe Illustrator 20.1.0, SVG Export Plug-In . SVG Version: 6.00 Build 0)  -->
<svg version="1.1" xmlns="http://www.w3.org/2000/svg" xmlns:xlink="http://www.w3.org/1999/xlink" x="0px" y="0px"
	 viewBox="0 0 1893.7 810" style="enable-background:new 0 0 1893.7 810;" xml:space="preserve">
<style type="text/css">
	.st0{fill:#FF9D0A;}
	.st1{fill:#FFCBA8;}
	.st2{fill:#436B00;}
</style>
<g id="Layer_3">
	<rect x="2" class="st0" width="1893.7" height="810"/>
</g>
<g id="Layer_01">
	<path class="st1" d="M1060.8,810c32.5-28.5,60.1-93.5,99-160.5c51.9-89.2,124.2-181.7,210-255.7c85.8-73.9,185.1-129.3,295.2-176.1
		c77.8-33.1,160.9-62,228.7-99.2c0-39.5,0-79,0-118.5c-419.1,0-838.2,0-1257.3,0c12.7,20.5,26.9,41.3,39.7,61.4
		c57,89.2,87.5,165.9,110.1,263s37.3,214.5,79,315.5c31.1,75.3,77.3,141.4,119.5,170.1C1010.1,810,1035.4,810,1060.8,810z"/>
</g>
<g id="Layer_02">
	<path class="st2" d="M0,241.1C0,430.7,0,620.4,0,810c422.8,0,845.5,0,1268.3,0c10.1-34.5,6.3-70.8-1.8-104.6
		c-15.2-63.8-45.7-119.1-107.8-140.5s-155.8-9-235.4-20.9s-145.1-48-237.6-66.6c-92.6-18.6-212.2-19.8-294.6-57.6
		C308.7,382,263.5,307.5,145,268.5C103.9,255,53.9,245.8,0,241.1z"/>
</g>
</svg>
