<?xml version="1.0" encoding="utf-8"?>
<!-- Generator: Adobe Illustrator 20.1.0, SVG Export Plug-In . SVG Version: 6.00 Build 0)  -->
<svg version="1.1" id="Layer_1" xmlns="http://www.w3.org/2000/svg" xmlns:xlink="http://www.w3.org/1999/xlink" x="0px" y="0px"
	 viewBox="0 0 1893.7 808.7" style="enable-background:new 0 0 1893.7 808.7;" xml:space="preserve">
<style type="text/css">
	.st0{fill:#46BDFF;}
	.st1{fill:#C0ECFF;}
	.st2{fill:#00365C;}
</style>
<g id="Layer_3">
	<rect class="st0" width="1893.7" height="810"/>
</g>
<g id="Layer_02">
	<polygon class="st1" points="436.6,782.6 430.6,762.3 391.1,775.1 404.2,802.9 409.7,797.7 	"/>
	<polygon class="st1" points="1484,493 1479.2,468.2 1438.4,482.1 1447.3,485.2 1463.4,494.9 	"/>
	<polygon class="st1" points="43,393.1 32.4,379.4 -2.9,396.9 1.6,401.6 15.5,413.3 	"/>
	<polygon class="st1" points="734.2,85.2 715.3,41.4 707.4,61.6 693.9,78.7 726.9,99 	"/>
	<polygon class="st1" points="721.3,807.9 708.3,790.7 676.8,800.7 680.8,811.5 687.2,827.6 	"/>
	<polygon class="st1" points="1698.8,35.8 1665.7,30.5 1647.9,34 1645.1,57.5 1672.3,68.8 	"/>
	<polygon class="st1" points="1219.6,86.8 1195.3,70.1 1161.4,67.8 1156.4,107.1 1197.3,110.5 	"/>
	<polygon class="st1" points="1891.4,753.4 1882.9,729.1 1861.7,730.3 1871.2,756.1 1894.6,782.4 	"/>
	<polygon class="st1" points="174.2,773.5 161.9,756 131.7,747.6 146.7,797.5 162.5,803.2 	"/>
	<polygon class="st1" points="182.5,2.1 157.1,-21.2 148.2,-10.3 140.8,8.5 174.5,22 	"/>
	<polygon class="st1" points="1003.4,476.4 988.7,443.6 959,465.5 980,467.7 988.1,490.7 	"/>
	<polygon class="st1" points="463.9,306.9 449.6,303.2 409.5,293.6 409.3,332.8 448.5,351.9 	"/>
	<polygon class="st1" points="1839.3,372.9 1828.2,352.5 1790.1,368.4 1796,394 1824.1,406 	"/>
	<polygon class="st1" points="1041.8,785.4 1040.9,755.7 1010.6,759.3 1024.4,794.5 1024.4,808.7 	"/>
	<polygon class="st1" points="1445,215.6 1423,178.4 1405.6,198.3 1392.9,223.1 1412.9,222.3 	"/>
	<polygon class="st1" points="440.1,701.9 433.1,675 412.8,686.6 398.8,699.5 427.7,698.4 	"/>
	<polygon class="st1" points="1499.8,778.8 1477.5,744.3 1467.2,754.4 1454.8,798.3 1473.7,801.1 	"/>
	<polygon class="st1" points="726.3,457.3 707.5,426.5 678.7,421.3 689.8,445.5 715.6,463.6 	"/>
	<polygon class="st1" points="1900.3,152.8 1881.6,119.9 1860.7,133.4 1855.1,147.9 1888.9,165.8 	"/>
	<polygon class="st1" points="463.2,3.8 438.6,-21.7 402.6,-4.3 413.6,15.4 435.6,20.4 	"/>
	<polygon class="st1" points="1296,587.5 1276.7,568.4 1254,595.6 1244.5,608 1258.6,627.5 	"/>
	<polygon class="st1" points="1012.3,185.2 990.8,166.6 973.8,163 972.8,199.9 1004.8,202.6 	"/>
	<polygon class="st1" points="1716.7,567.5 1698.5,560.1 1672.4,563 1693.7,584.9 1700.3,590.3 	"/>
	<polygon class="st1" points="1469,3.6 1470.1,-19 1444.5,4.4 1429.4,9.1 1469.6,37.3 	"/>
	<polygon class="st1" points="1694.9,799.5 1672.6,782.8 1657.3,787.7 1643.4,812.6 1682.4,820 	"/>
	<polygon class="st1" points="296.4,493.1 271.3,476.4 259.4,481 263.3,495.7 274.1,526.3 	"/>
	<polygon class="st1" points="835.2,671 813.9,634.5 782.5,651.8 796.9,667.5 809.9,692.4 	"/>
	<polygon class="st1" points="628.1,610.2 604.3,582.4 577.4,605.6 575.1,637.8 604.8,641.4 	"/>
	<polygon class="st1" points="287.5,196.6 287.7,177.4 259.8,186.8 263,216.1 281.5,216.4 	"/>
	<polygon class="st1" points="1618.3,292.9 1601.6,264.9 1585.5,281.8 1597.4,298.8 1608,294.4 	"/>
	<polygon class="st1" points="723.5,260.9 726.5,246 705.6,258 700.6,283.4 724.8,303.6 	"/>
	<polygon class="st1" points="99,144.2 70.9,128 62.1,129.6 63.9,142.5 80.6,155.6 	"/>
	<polygon class="st1" points="1054.5,12.1 1046.9,-3.2 1026,3.8 1012.3,44.1 1032.4,47.7 	"/>
	<polygon class="st1" points="1289.2,428.3 1278.2,411.4 1237.6,424 1243.9,455 1266,448.2 	"/>
	<polygon class="st1" points="1884.4,589.8 1862.2,578 1838.9,594.6 1844.4,603.5 1864,623.8 	"/>
	<polygon class="st1" points="1308.3,779.3 1289.7,761 1271.1,788.2 1263,794.5 1285.2,808.2 	"/>
	<polygon class="st1" points="196.7,366.2 189.7,340.5 165.8,353.5 157.1,380.4 174.8,388 	"/>
	<polygon class="st1" points="1638,448.2 1613.4,433.6 1587.1,424.8 1575.3,454.2 1617.3,456.6 	"/>
	<polygon class="st1" points="538.4,480.4 525.5,458.9 496.7,468.3 501.8,495.4 532.2,503.7 	"/>
	<polygon class="st1" points="38.3,700.7 35.2,682.3 -5,676.8 2.2,710.3 33.2,703 	"/>
	<polygon class="st1" points="1761.1,235.4 1760.8,202.7 1738.4,214 1726.2,245.6 1757,263.8 	"/>
	<polygon class="st1" points="570.1,800.3 546.1,776.5 519.7,779 519.3,818.1 560.7,828.6 	"/>
	<polygon class="st1" points="866,299.9 858.4,264.5 831.7,285.1 835.4,318.3 852.9,317.5 	"/>
	<polygon class="st1" points="1080.1,615.3 1046,594.9 1033.9,600.3 1026.6,640.8 1052.8,624.8 	"/>
	<polygon class="st1" points="1122.1,281.9 1113.3,281.6 1084.6,290.1 1099.1,300.5 1123.4,312 	"/>
	<polygon class="st1" points="1311.3,200.4 1293.8,187 1265.4,175.9 1264.6,210.3 1297.1,228 	"/>
	<polygon class="st1" points="174.2,592 145.5,587 119.7,579.9 130.8,601.3 140.4,625 	"/>
	<polygon class="st1" points="1436.7,646.7 1427.9,617.5 1390.1,624.2 1400.9,666.9 1418.2,660.3 	"/>
	<polygon class="st1" points="304.7,702.7 282.4,693.6 256.5,697.1 253.5,723.9 294.8,732.2 	"/>
	<polygon class="st1" points="558.1,218 547.7,209.8 515.2,211.5 526.9,221 539.7,228.9 	"/>
	<polygon class="st1" points="1383.3,320.6 1368.2,304.6 1335.3,310.1 1340.5,341.4 1374.4,358.6 	"/>
	<polygon class="st1" points="460.6,572.6 438.8,539.3 401.8,565.6 415.6,567.4 442.5,581.2 	"/>
	<polygon class="st1" points="37,42.7 17.4,11.8 -8.3,31.3 -17,60.6 1.2,63.5 	"/>
	<polygon class="st1" points="1908.7,26.3 1876.6,5.8 1864.9,4.3 1857,21.6 1890,47.1 	"/>
	<polygon class="st1" points="897.9,44 877.5,24.7 854.6,39 854.1,67.9 877.3,81.2 	"/>
	<polygon class="st1" points="879.2,481.5 846,459.5 820.2,466.5 817.7,502.6 851.5,517.6 	"/>
	<polygon class="st1" points="598.2,45.5 589,12 548.9,16.8 559.5,51.3 585.7,66.5 	"/>
	<polygon class="st1" points="1614.2,645.7 1594.2,616.9 1589.4,630 1564.6,642.1 1593.7,669.8 	"/>
	<polygon class="st1" points="347.2,67.5 325.1,46.1 299.6,50.3 307.6,87 321.9,99.4 	"/>
	<polygon class="st1" points="574,362.7 553.2,341.9 536.1,367.7 539.1,373.3 539.6,403 	"/>
	<polygon class="st1" points="489,128.5 466.2,103.6 467.7,113.3 444.4,131.3 471.8,130 	"/>
	<polygon class="st1" points="1125.7,501.2 1109.3,478.8 1076.9,506.9 1083,532.7 1112.5,533.5 	"/>
	<polygon class="st1" points="1595.6,145.7 1575.4,139.3 1540.9,128.7 1545.1,149.6 1572.6,171.3 	"/>
	<polygon class="st1" points="990.2,309.6 986.5,281.9 950.3,292.3 965.6,314.2 986.5,340.2 	"/>
	<polygon class="st1" points="1781.7,710.4 1756.5,684.6 1743.4,696.4 1730.6,720 1772.1,732.8 	"/>
	<polygon class="st1" points="956,690.1 937,674.5 932.2,677.4 915.4,701.8 957,708.1 	"/>
	<polygon class="st1" points="49.9,280.3 35.9,266.4 7.1,267.1 2.1,307.5 28.2,299.8 	"/>
	<polygon class="st1" points="97.7,486.6 89.1,477.4 72.1,489.6 53.4,507.1 94,521 	"/>
	<polygon class="st1" points="1746.7,353.2 1734.9,330.3 1697.9,343 1693.9,362.2 1724.2,366.4 	"/>
	<polygon class="st1" points="1372.4,82.4 1360.7,53.3 1331,62 1335.7,84.8 1352.7,103.4 	"/>
	<polygon class="st1" points="678.6,157.2 669.9,160.1 663.5,163.2 643.6,176.8 676.8,193.5 	"/>
	<polygon class="st1" points="1167.4,197 1159.8,168.1 1147.9,179.6 1133.3,192.6 1168.2,207.4 	"/>
	<polygon class="st1" points="314.6,325.1 304.9,307.5 289.4,310.5 278,337.9 297.1,348.1 	"/>
	<polygon class="st1" points="1534.6,378.5 1519,353.1 1489.5,353.6 1491.7,390.1 1538.1,389.1 	"/>
	<polygon class="st1" points="1844.1,498 1833.2,465.9 1789.5,484.2 1788.5,500 1836.6,521.1 	"/>
	<polygon class="st1" points="1378.8,479.9 1366.5,449.3 1331.2,467.2 1338.4,494.5 1357,508.7 	"/>
	<polygon class="st1" points="393,418.8 379.6,402.3 344,407.8 334.3,421.4 379.4,439.7 	"/>
	<polygon class="st1" points="816.6,771.1 810.9,761.9 775.9,774.4 788.1,779.8 822.3,796.5 	"/>
	<polygon class="st1" points="202.4,246.9 181.5,207.9 153,232.5 149.6,243.1 174.4,260.6 	"/>
	<polygon class="st1" points="1167.8,419.6 1173.5,401.5 1147.9,412.2 1148.9,429 1155.2,442.5 	"/>
	<polygon class="st1" points="1754.6,141 1748.3,119.1 1716.4,116.7 1724.9,148.4 1751,158.4 	"/>
	<polygon class="st1" points="1161.5,711.7 1146.2,678 1140.9,690.7 1123.2,717.2 1139.8,718.5 	"/>
	<polygon class="st1" points="919.6,583.3 896.9,570.5 877.8,580.2 868.8,586.8 914.4,609.1 	"/>
	<polygon class="st1" points="411.6,227.3 387.3,212.2 381.4,226.9 375.1,243.9 390.3,260.9 	"/>
	<polygon class="st1" points="802.3,343.1 771.5,339.1 755.9,333.5 748.1,361.2 768.4,381.4 	"/>
	<polygon class="st1" points="1489.5,120.7 1456.9,98.1 1442.7,105.1 1440.9,111.2 1469.4,130.3 	"/>
	<polygon class="st1" points="1261.2,336.5 1250.3,303.1 1214.1,303.5 1212.9,325.1 1234.3,335.9 	"/>
	<polygon class="st1" points="860.4,195.7 854.7,163.3 810.6,162.4 825.1,200.1 851.7,218.7 	"/>
	<polygon class="st1" points="253.4,94.5 228.9,80.5 211.6,91.9 205.2,103.8 223.9,134.8 	"/>
	<polygon class="st1" points="612.1,732.5 586.1,691.7 566.6,708.9 568,731.2 604.6,730.2 	"/>
	<polygon class="st1" points="1282.8,693.7 1244.1,668.7 1224.7,661.7 1234.7,695.5 1252.4,703.5 	"/>
	<polygon class="st1" points="1572.9,547.7 1558,513.2 1533.9,534.6 1520.1,554 1549.2,563.1 	"/>
	<polygon class="st1" points="933.4,784.8 908.2,752 878.5,757.8 882.6,799.1 903.4,787.6 	"/>
	<polygon class="st1" points="772.8,580.3 762.2,575 718.1,588.5 738.1,592.1 750.6,620.6 	"/>
	<polygon class="st1" points="1064.3,371.9 1033.8,365.4 1013.5,367.9 1030.8,400.2 1041.7,410.8 	"/>
	<polygon class="st1" points="909.1,411.6 897.6,377.9 862.3,385.8 886,416.4 898.7,439.5 	"/>
	<polygon class="st1" points="1643.4,739.5 1632.3,707.5 1590.5,717.5 1602.4,732.5 1627.8,755.1 	"/>
	<polygon class="st1" points="1206.8,799.9 1191.1,781.4 1171,799.5 1176.3,820.9 1184.4,818.6 	"/>
	<polygon class="st1" points="633.1,517 627.4,497.1 597,502.3 580.5,538.7 623.1,529.6 	"/>
	<polygon class="st1" points="1673.7,221.3 1654.7,183.2 1633.4,204.8 1630.2,236 1663.6,242.5 	"/>
	<polygon class="st1" points="1280.6,9.6 1274.6,-10.7 1235.1,2.2 1248.2,30 1253.7,24.7 	"/>
	<polygon class="st1" points="323.9,564.3 317.9,543.9 278.4,556.8 291.4,584.6 296.9,579.3 	"/>
	<polygon class="st1" points="1201.5,566.4 1195.5,546.1 1156,558.9 1169.1,586.7 1174.6,581.5 	"/>
	<polygon class="st1" points="1558.7,227.7 1552.7,207.4 1513.2,220.3 1526.3,248.1 1531.8,242.8 	"/>
	<polygon class="st1" points="132.2,697.5 126.2,677.2 86.7,690.1 99.7,717.9 105.3,712.6 	"/>
	<polygon class="st1" points="1593.6,22.9 1587.5,2.5 1548.1,15.4 1561.1,43.2 1566.6,38 	"/>
	<polygon class="st1" points="1846.8,264 1840.7,243.6 1801.2,256.5 1814.3,284.3 1819.8,279.1 	"/>
	<polygon class="st1" points="1816.4,56.6 1810.4,36.2 1770.9,49.1 1784,76.9 1789.5,71.7 	"/>
	<polygon class="st1" points="1745.3,467.9 1739.2,447.6 1699.7,460.4 1712.8,488.3 1718.3,483 	"/>
	<polygon class="st1" points="1442.1,549.3 1436.1,529 1396.6,541.8 1409.7,569.6 1415.2,564.4 	"/>
	<polygon class="st1" points="636.7,322.3 630.7,302 591.2,314.9 604.3,342.7 609.8,337.4 	"/>
	<polygon class="st1" points="1464.2,368.4 1458.2,348.1 1418.7,360.9 1431.8,388.7 1437.3,383.5 	"/>
	<polygon class="st1" points="1367.9,709.1 1361.9,688.8 1322.4,701.6 1335.5,729.4 1341,724.2 	"/>
	<polygon class="st1" points="604,122 597.9,101.6 558.4,114.5 571.5,142.3 577,137 	"/>
	<polygon class="st1" points="59.2,789.7 53.2,769.3 13.7,782.2 26.8,810 32.3,804.7 	"/>
	<polygon class="st1" points="388.2,137.6 382.2,117.3 342.7,130.2 355.7,158 361.2,152.7 	"/>
	<polygon class="st1" points="738.4,685.8 732.3,665.5 692.9,678.3 705.9,706.1 711.4,700.9 	"/>
	<polygon class="st1" points="1017.4,89.6 1011.4,69.2 971.9,82.1 985,109.9 990.5,104.7 	"/>
	<polygon class="st1" points="1587.5,800.9 1581.5,780.5 1542,793.4 1555.1,821.2 1560.6,815.9 	"/>
	<polygon class="st1" points="1641,346.9 1634.9,326.5 1595.4,339.4 1608.5,367.2 1614,361.9 	"/>
	<polygon class="st1" points="225.5,521.1 219.5,500.8 180,513.6 193.1,541.4 198.6,536.2 	"/>
	<polygon class="st1" points="811.2,236.1 805.1,215.8 765.6,228.6 778.7,256.4 784.2,251.2 	"/>
	<polygon class="st1" points="223.8,671.7 217.7,651.4 178.2,664.2 191.3,692 196.8,686.8 	"/>
	<polygon class="st1" points="530.4,632.4 524.4,612 484.9,624.9 497.9,652.7 503.5,647.5 	"/>
	<polygon class="st1" points="1307.9,102.1 1301.8,81.7 1262.3,94.6 1275.4,122.4 1280.9,117.1 	"/>
	<polygon class="st1" points="1553.3,681 1547.3,660.7 1507.8,673.5 1520.9,701.3 1526.4,696.1 	"/>
	<polygon class="st1" points="941.4,133.9 935.4,113.5 895.9,126.4 908.9,154.2 914.4,149 	"/>
	<polygon class="st1" points="1186.1,4.3 1180.1,-16.1 1140.6,-3.2 1153.7,24.6 1159.2,19.4 	"/>
	<polygon class="st1" points="1475.9,284.8 1469.8,264.5 1430.4,277.4 1443.4,305.2 1448.9,299.9 	"/>
	<polygon class="st1" points="365.6,768 359.5,747.7 320,760.5 333.1,788.3 338.6,783.1 	"/>
	<polygon class="st1" points="490.3,392.2 484.3,371.9 444.8,384.7 457.9,412.6 463.4,407.3 	"/>
	<polygon class="st1" points="1813.1,789.5 1807,769.2 1767.5,782 1780.6,809.9 1786.1,804.6 	"/>
	<polygon class="st1" points="1549.3,439.6 1543.3,419.3 1503.8,432.1 1516.8,459.9 1522.3,454.7 	"/>
	<polygon class="st1" points="148.7,394.6 142.7,374.3 103.2,387.1 116.2,414.9 121.7,409.7 	"/>
	<polygon class="st1" points="524.8,274.1 518.8,253.8 479.3,266.6 492.3,294.4 497.8,289.2 	"/>
	<polygon class="st1" points="1001.5,544.8 995.5,524.5 956,537.3 969,565.1 974.6,559.9 	"/>
	<polygon class="st1" points="1908.6,417.8 1902.6,397.5 1863.1,410.3 1876.2,438.2 1881.7,432.9 	"/>
	<polygon class="st1" points="1682.9,122.7 1676.9,102.3 1637.4,115.2 1650.5,143 1656,137.7 	"/>
	<polygon class="st1" points="1726.8,636.3 1720.8,615.9 1681.3,628.8 1694.4,656.6 1699.9,651.3 	"/>
	<polygon class="st1" points="304.2,-4.4 298.2,-24.7 258.7,-11.9 271.8,16 277.3,10.7 	"/>
</g>
<g id="Layer_03">
	<polygon class="st2" points="602.9,439.4 584.5,428.2 555.8,430.1 555.7,468.2 588,461.7 	"/>
	<polygon class="st2" points="1897.7,202.3 1895.4,180.3 1849.4,182.5 1849.8,217.3 1881.8,210.9 	"/>
	<polygon class="st2" points="1245.1,263.1 1238.8,232.8 1204.1,253.7 1220.9,266.6 1227.2,261.4 	"/>
	<polygon class="st2" points="26.1,687.7 6.7,650.9 -19.7,655.7 -29.4,706.3 2.2,697.3 	"/>
	<polygon class="st2" points="1850.9,785.3 1850.1,773.8 1810.4,773.1 1807.2,797 1840.5,802.2 	"/>
	<polygon class="st2" points="1136,769.1 1121.6,742.4 1097.1,756.9 1097.9,790.4 1134.2,798.5 	"/>
	<polygon class="st2" points="186.8,180.6 174.1,160.7 140.6,174.3 146.2,203.9 184.4,215.4 	"/>
	<polygon class="st2" points="426.3,785.2 404.4,777.2 384.3,784.9 383.3,798.5 408.6,820.9 	"/>
	<polygon class="st2" points="1558.9,404.8 1549.4,391.6 1520.7,396.4 1538,416.4 1560.2,441.6 	"/>
	<polygon class="st2" points="904.1,27.5 864.7,19.4 846.2,30.1 864.7,61 882.7,47.9 	"/>
	<polygon class="st2" points="799.4,758 802.8,736.5 763.7,726 770,758.8 782,778.9 	"/>
	<polygon class="st2" points="1618.6,5.3 1615.8,2.7 1590.3,6 1581,20.6 1599.2,42.5 	"/>
	<polygon class="st2" points="255.7,491.2 253.7,462.6 233,482.8 221.3,491.3 234.2,518.7 	"/>
	<polygon class="st2" points="1494.9,765.8 1498,755.8 1457.6,746.3 1460.4,781.7 1489.4,798.2 	"/>
	<polygon class="st2" points="558.1,-6.4 560.8,-16.9 535.5,-0.3 524.6,9.5 547.2,14.7 	"/>
	<polygon class="st2" points="1102.8,478.8 1080.5,470.4 1049.5,475.1 1048.3,507.8 1076.3,501.4 	"/>
	<polygon class="st2" points="1820.8,541.6 1826.9,512 1783.8,521.1 1790.9,549.3 1816.5,567.5 	"/>
	<polygon class="st2" points="1176.7,19.4 1152.8,-8.3 1139.2,-2.1 1130.8,41.5 1157.2,40.6 	"/>
	<polygon class="st2" points="474.4,252.7 453.9,249.3 416.9,241.5 421.8,267.3 446.3,295.9 	"/>
	<polygon class="st2" points="912.7,294.6 899.7,269.2 882.7,264.6 885.2,291.2 908.2,301.7 	"/>
	<polygon class="st2" points="359.5,16.1 362.4,-0.7 314.9,0 328.6,22.2 356.6,55.1 	"/>
	<polygon class="st2" points="1414.7,566.5 1393.1,562.4 1364.9,567.3 1372.7,576.7 1389.1,598.5 	"/>
	<polygon class="st2" points="1398.4,70.3 1376.4,44.7 1352,40.8 1365.1,69.6 1370.8,80 	"/>
	<polygon class="st2" points="689.3,245.2 680.1,241.5 652.3,232.7 639.1,257 677.3,265.1 	"/>
	<polygon class="st2" points="41.3,407.3 7.8,399 1.9,397.5 2.5,441.6 14,445.4 	"/>
	<polygon class="st2" points="1068.1,214.3 1057.5,193.2 1027.3,209.4 1042.1,224.7 1068.7,235.9 	"/>
	<polygon class="st2" points="596.8,701.9 567.4,679.8 560.1,683.2 560,713.3 574.5,732.1 	"/>
	<polygon class="st2" points="63.8,11.8 67.1,-10.5 36.4,1.6 39.7,30.9 46.2,43.3 	"/>
	<polygon class="st2" points="1448.7,259.3 1428.8,234.5 1407.3,230.7 1406.7,260.2 1440.1,285.2 	"/>
	<polygon class="st2" points="1693.6,280 1673.3,262.2 1649.4,251.1 1646.7,300.4 1691.4,300.1 	"/>
	<polygon class="st2" points="294.3,670.7 285,635.7 255,658.4 243.5,684.7 284.5,673.4 	"/>
	<polygon class="st2" points="880.3,504.7 864.9,471 843,479.1 843.2,505.4 875.5,522.9 	"/>
	<polygon class="st2" points="1904.1,381.3 1888.6,342.7 1845.5,357.9 1850.9,389.9 1873.6,382.5 	"/>
	<polygon class="st2" points="1007.8,650.4 995,629.2 970.8,646.7 967.3,664.5 978.3,693.4 	"/>
	<polygon class="st2" points="1894.3,4.6 1865.4,-3.4 1860.6,10 1838.9,29.8 1869.5,35.2 	"/>
	<polygon class="st2" points="1685.4,656.2 1675.3,633.5 1643.9,654 1635.3,654.8 1674.5,667.1 	"/>
	<polygon class="st2" points="449,499.7 412,471.5 410.7,489.9 405,513.3 415.1,521.4 	"/>
	<polygon class="st2" points="38,231.1 14.4,220.2 -7.5,222.8 1.7,245.8 10.3,249.8 	"/>
	<polygon class="st2" points="1320.7,374.6 1321.8,352 1291,363.3 1286,409 1303.8,414.9 	"/>
	<polygon class="st2" points="781.4,615.4 780.5,583.3 753.7,599 754.5,617.6 780.4,640.8 	"/>
	<polygon class="st2" points="755.5,419.3 735.4,391.7 714.9,414.4 699.1,442.7 729.9,437.7 	"/>
	<polygon class="st2" points="333.4,151.6 330.9,137.2 296.4,139.4 304.5,168.2 306.4,183.1 	"/>
	<polygon class="st2" points="1187.8,633.3 1179.7,613.1 1166.4,619.7 1151.6,641.6 1183,672.6 	"/>
	<polygon class="st2" points="711.2,63.8 699.1,40.9 661.7,57.9 654.9,89.7 689.6,90.8 	"/>
	<polygon class="st2" points="1296.9,750.5 1281.9,734.6 1274.6,728.4 1260.5,776.2 1276.4,784.3 	"/>
	<polygon class="st2" points="1778.8,138 1756.6,126.6 1730.6,145.8 1741.4,167.5 1763.9,178.2 	"/>
	<polygon class="st2" points="1720.1,473.8 1686.5,469.4 1680.4,470.6 1670,482.2 1686.8,502.2 	"/>
	<polygon class="st2" points="1187,384.7 1172.5,367.8 1160.8,383.3 1148.4,393.4 1180.4,410.8 	"/>
	<polygon class="st2" points="843.7,160.6 830.4,155.4 800.4,154.5 805.7,196.6 813.2,183.5 	"/>
	<polygon class="st2" points="175.2,748.8 165.3,727.4 123.2,716 137.1,738.6 144.2,756.5 	"/>
	<polygon class="st2" points="358.6,358.7 344.7,343.5 324.7,352.7 315,378.1 350.8,383 	"/>
	<polygon class="st2" points="430.8,649.7 419.9,610 387.4,636.4 379.9,638.3 412.8,652.7 	"/>
	<polygon class="st2" points="590.4,167.3 563.6,141.5 544.5,147.3 554.2,173.3 557,176.7 	"/>
	<polygon class="st2" points="1589.5,550.5 1563.3,537 1534.3,557.4 1553,567.1 1552.1,578.4 	"/>
	<polygon class="st2" points="123.4,561 98.8,530.4 73.8,536.6 85.3,558.8 118.2,574.6 	"/>
	<polygon class="st2" points="1885.8,669.6 1876.6,636.3 1837.9,639.5 1840.4,682.1 1868,695.9 	"/>
	<polygon class="st2" points="152.9,283.3 122.5,264.9 108.8,286.9 110.5,298.7 127.7,312.2 	"/>
	<polygon class="st2" points="1560.3,188.2 1548.7,156.3 1526.1,157.5 1530.2,198.2 1550.5,204.6 	"/>
	<polygon class="st2" points="1013.9,779.2 981.6,770 977.5,782.8 956.4,812.5 1002.9,822.2 	"/>
	<polygon class="st2" points="66.5,802.7 48,773.4 34.5,798.1 35.1,818.5 49,830.6 	"/>
	<polygon class="st2" points="610.4,575.7 605.4,567.9 570.7,572.2 583.5,591.3 606.4,598.7 	"/>
	<polygon class="st2" points="1059,374.2 1045.9,334.5 1014.5,347 1022.1,390.6 1043.3,392.4 	"/>
	<polygon class="st2" points="1058.5,93.5 1036,58.4 1000.9,67.6 1016.1,89.7 1029.9,96.6 	"/>
	<polygon class="st2" points="231.5,21.7 220.4,7.9 199.6,27.3 190.2,47.6 221,45 	"/>
	<polygon class="st2" points="1236.2,532.7 1234.5,499.6 1201.4,504.7 1197.8,542 1220.9,540.8 	"/>
	<polygon class="st2" points="265.7,784.2 247.2,774.7 243.3,776.7 232.4,796.9 251.7,796 	"/>
	<polygon class="st2" points="560.8,273.1 567,249.1 527.8,257.4 540.6,295.6 568.6,296 	"/>
	<polygon class="st2" points="1637.8,781.4 1617.9,766.6 1617.5,768.8 1594.3,807.2 1622.5,813.6 	"/>
	<polygon class="st2" points="458.9,144.9 454.5,108.4 424.3,117.6 431.3,138.2 460.9,170.3 	"/>
	<polygon class="st2" points="1205.4,142.4 1210.1,105.7 1164.6,121.8 1180,152.3 1199.5,156.6 	"/>
	<polygon class="st2" points="249.2,335.3 227.4,320.6 197.2,324.2 191,355 214.6,355 	"/>
	<polygon class="st2" points="1744.9,40.1 1722.6,35.2 1691.6,27.5 1705.5,55.8 1726.8,63.9 	"/>
	<polygon class="st2" points="944.7,165.4 937.4,157.8 917,175.4 903.4,201.6 932.6,191.7 	"/>
	<polygon class="st2" points="468.3,397 460.9,387.6 439.2,383.9 450.5,413.5 455.2,425.7 	"/>
	<polygon class="st2" points="134.8,437.4 126.2,403.1 102.5,409.5 88.9,457.4 123.5,455.8 	"/>
	<polygon class="st2" points="970.5,415.2 948.8,380.9 934.9,390.8 925.8,429.9 939.2,427.6 	"/>
	<polygon class="st2" points="802.1,67.7 778.8,23.9 759.6,46.8 753.3,70.6 788.9,85.8 	"/>
	<polygon class="st2" points="1485.5,24.3 1471.7,4.4 1438.6,33.5 1452,53.5 1467.6,54 	"/>
	<polygon class="st2" points="1472.2,453.1 1433,427.7 1418.7,427 1424.5,465.1 1434.1,475.4 	"/>
	<polygon class="st2" points="1328.2,638 1320.1,617.9 1277.4,626.2 1279.3,664.6 1313.2,666.7 	"/>
	<polygon class="st2" points="1774.4,354.9 1750.6,356 1720,341.7 1728.7,367.9 1742.2,372.4 	"/>
	<polygon class="st2" points="1764.7,710.5 1768.6,671.2 1725.8,678.4 1735.4,718.7 1753,716.6 	"/>
	<polygon class="st2" points="977.1,537.9 970.8,504.7 948.8,509.5 947.3,547.8 960.6,540.6 	"/>
	<polygon class="st2" points="846.1,394.6 833.9,372 819.8,364.9 820.8,383.8 851.2,394 	"/>
	<polygon class="st2" points="1410.2,796 1385.6,791.5 1376.7,793.2 1370.3,804 1384.8,810.9 	"/>
	<polygon class="st2" points="1289.8,10.5 1271.2,-15.2 1241.7,4.5 1242.8,23.9 1288.8,36.1 	"/>
	<polygon class="st2" points="1629.3,102.9 1599.9,94.3 1584.1,91.2 1591.4,109.9 1602.7,117.8 	"/>
	<polygon class="st2" points="16.6,554.3 25.8,558.8 -2,554.7 2.3,581.9 8.3,599.6 	"/>
	<polygon class="st2" points="1489.4,675 1468,655.7 1451.5,643.7 1445.3,673.7 1467.8,686.8 	"/>
	<polygon class="st2" points="1453.9,144.9 1438.6,122.6 1399.7,135.1 1416.4,162.2 1425.1,179.2 	"/>
	<polygon class="st2" points="1540.6,313 1522.5,307.8 1504.9,296.5 1500.6,332.5 1513.7,331.5 	"/>
	<polygon class="st2" points="1336.9,188.4 1323.9,169.6 1299.7,169.8 1291.9,197 1327.5,222.9 	"/>
	<polygon class="st2" points="1116.5,700 1099.6,674.9 1055.8,688.2 1069.6,698 1088.1,720.4 	"/>
	<polygon class="st2" points="1336.1,304.8 1321.4,282.6 1292.1,268 1277.4,306.2 1325.9,305.2 	"/>
	<polygon class="st2" points="770,527.5 761.5,490.7 743.1,508 736.1,517 760.3,528.5 	"/>
	<polygon class="st2" points="1740.2,575.4 1734,564.6 1705.2,561.7 1700.5,593.3 1733.2,608.5 	"/>
	<polygon class="st2" points="1363.4,480.9 1333.5,476.7 1313.4,468.6 1330,504.9 1337.9,502.9 	"/>
	<polygon class="st2" points="720.6,735 710.7,719.3 673.1,731.7 691.5,759.3 717,741.2 	"/>
	<polygon class="st2" points="22.3,93.5 5.5,79.5 -14.6,73.6 -21.7,108.9 3.2,97.7 	"/>
	<polygon class="st2" points="1840.9,258.9 1813.1,234.2 1808.9,263.9 1808.4,279.3 1823.2,290.8 	"/>
	<polygon class="st2" points="350.4,503.8 322.6,479.1 318.5,508.9 317.9,524.2 332.8,535.7 	"/>
	<polygon class="st2" points="208.3,613.2 180.5,588.5 176.4,618.2 175.8,633.6 190.7,645.1 	"/>
	<polygon class="st2" points="1429.3,343.3 1401.5,318.6 1397.3,348.3 1396.8,363.7 1411.6,375.2 	"/>
	<polygon class="st2" points="1867.3,81.4 1839.5,56.7 1835.3,86.4 1834.8,101.8 1849.6,113.3 	"/>
	<polygon class="st2" points="1817.1,423.9 1789.3,399.2 1785.2,428.9 1784.6,444.3 1799.4,455.8 	"/>
	<polygon class="st2" points="1631.8,325.1 1604,300.5 1599.9,330.2 1599.3,345.5 1614.2,357.1 	"/>
	<polygon class="st2" points="537.1,790.4 509.3,765.7 505.2,795.5 504.6,810.8 519.5,822.3 	"/>
	<polygon class="st2" points="531.8,513.5 504,488.8 499.9,518.5 499.3,533.9 514.2,545.4 	"/>
	<polygon class="st2" points="324.2,262.2 296.4,237.5 292.3,267.2 291.7,282.5 306.6,294.1 	"/>
	<polygon class="st2" points="1497.9,525.7 1470.1,501 1466,530.7 1465.4,546.1 1480.3,557.6 	"/>
	<polygon class="st2" points="899.9,628.7 872,604.1 867.9,633.8 867.4,649.1 882.2,660.6 	"/>
	<polygon class="st2" points="694.7,640.4 666.9,615.7 662.8,645.4 662.2,660.8 677.1,672.3 	"/>
	<polygon class="st2" points="667.8,367.6 640,342.9 635.8,372.6 635.3,387.9 650.1,399.5 	"/>
	<polygon class="st2" points="903.4,780.4 875.6,755.7 871.4,785.5 870.9,800.8 885.7,812.3 	"/>
	<polygon class="st2" points="165.3,68.1 137.5,43.4 133.4,73.2 132.8,88.5 147.7,100 	"/>
	<polygon class="st2" points="1138.1,269 1110.3,244.3 1106.2,274 1105.6,289.4 1120.5,300.9 	"/>
	<polygon class="st2" points="739.3,152.1 711.5,127.5 707.4,157.2 706.8,172.5 721.7,184.1 	"/>
	<polygon class="st2" points="966.3,84.3 938.5,59.6 934.4,89.4 933.8,104.7 948.6,116.2 	"/>
	<polygon class="st2" points="1122.7,594.5 1094.9,569.8 1090.8,599.5 1090.2,614.9 1105.1,626.4 	"/>
	<polygon class="st2" points="789.5,274 761.7,249.3 757.5,279 757,294.4 771.8,305.9 	"/>
	<polygon class="st2" points="329,75.2 301.2,50.5 297.1,80.2 296.5,95.6 311.4,107.1 	"/>
	<polygon class="st2" points="1724,751 1696.2,726.3 1692.1,756.1 1691.5,771.4 1706.4,782.9 	"/>
	<polygon class="st2" points="1407.1,705.6 1379.3,680.9 1375.2,710.7 1374.6,726 1389.5,737.5 	"/>
	<polygon class="st2" points="952.3,715.2 924.5,690.5 920.4,720.3 919.8,735.6 934.7,747.1 	"/>
	<polygon class="st2" points="367.9,728 340.1,703.3 336,733.1 335.4,748.4 350.3,759.9 	"/>
	<polygon class="st2" points="259,219.7 231.2,195 227.1,224.7 226.5,240 241.4,251.6 	"/>
	<polygon class="st2" points="61.6,317.6 33.8,292.9 29.6,322.7 29.1,338 43.9,349.5 	"/>
	<polygon class="st2" points="282.7,570.9 254.9,546.2 250.8,575.9 250.2,591.3 265.1,602.8 	"/>
	<polygon class="st2" points="1607.7,679.8 1579.8,655.1 1575.7,684.9 1575.2,700.2 1590,711.7 	"/>
	<polygon class="st2" points="1690.8,381 1663,356.4 1658.9,386.1 1658.3,401.4 1673.2,413 	"/>
	<polygon class="st2" points="1130.4,80.7 1102.6,56 1098.5,85.8 1097.9,101.1 1112.8,112.6 	"/>
	<polygon class="st2" points="689.5,491.5 661.7,466.8 657.6,496.6 657,511.9 671.9,523.4 	"/>
	<polygon class="st2" points="95.9,122.3 68.1,97.6 64,127.4 63.4,142.7 78.3,154.2 	"/>
	<polygon class="st2" points="149.1,655.7 121.3,631 117.2,660.7 116.6,676 131.5,687.6 	"/>
	<polygon class="st2" points="164.5,801 136.7,776.3 132.6,806 132,821.4 146.9,832.9 	"/>
	<polygon class="st2" points="1009.8,246.8 981.9,222.1 977.8,251.9 977.3,267.2 992.1,278.7 	"/>
	<polygon class="st2" points="547.3,593.1 519.5,568.4 515.4,598.2 514.8,613.5 529.7,625 	"/>
	<polygon class="st2" points="399.3,227.8 371.5,203.1 367.4,232.9 366.8,248.2 381.7,259.7 	"/>
	<polygon class="st2" points="970.3,1.8 942.5,-22.9 938.3,6.9 937.8,22.2 952.6,33.7 	"/>
	<polygon class="st2" points="66.6,483.6 38.8,458.9 34.7,488.6 34.1,503.9 49,515.5 	"/>
</g>
</svg>
