<?xml version="1.0" encoding="utf-8"?>
<!-- Generator: Adobe Illustrator 20.1.0, SVG Export Plug-In . SVG Version: 6.00 Build 0)  -->
<svg version="1.1" xmlns="http://www.w3.org/2000/svg" xmlns:xlink="http://www.w3.org/1999/xlink" x="0px" y="0px"
	 viewBox="0 0 1893.7 810" style="enable-background:new 0 0 1893.7 810;" xml:space="preserve">
<style type="text/css">
	.st0{fill:#D30000;}
	.st1{fill:#FFA5CC;}
	.st2{fill:#670002;}
</style>
<g id="Layer_3">
	<rect class="st0" width="1893.7" height="810"/>
</g>
<g id="Layer_03">
	
		<rect x="99.4" y="234.8" transform="matrix(0.8552 -0.5184 0.5184 0.8552 -121.6021 93.2189)" class="st1" width="13.2" height="58.8"/>
	
		<rect x="1765" y="790.1" transform="matrix(0.6404 -0.768 0.768 0.6404 20.9105 1653.0581)" class="st1" width="21.5" height="28.2"/>
	
		<rect x="1017.3" y="7.9" transform="matrix(0.7721 -0.6355 0.6355 0.7721 219.2575 651.226)" class="st1" width="0.7" height="24"/>
	
		<rect x="865.3" y="709" transform="matrix(0.4218 -0.9067 0.9067 0.4218 -133.6546 1213.4967)" class="st1" width="38.5" height="5.1"/>
	
		<rect x="1681.8" y="149" transform="matrix(0.9925 -0.1224 0.1224 0.9925 -6.4728 207.779)" class="st1" width="12" height="15.1"/>
	
		<rect x="404.5" y="634.8" transform="matrix(0.911 -0.4124 0.4124 0.911 -231.6414 224.7894)" class="st1" width="1.2" height="28.7"/>
	
		<rect x="1321.6" y="555.1" transform="matrix(0.2581 -0.9661 0.9661 0.2581 456.7123 1711.7828)" class="st1" width="42.6" height="6.8"/>
	
		<rect x="522" y="19.7" transform="matrix(0.5306 -0.8476 0.8476 0.5306 200.9768 477.8409)" class="st1" width="19.9" height="75.5"/>
	
		<rect x="927.4" y="333.1" transform="matrix(0.2166 -0.9763 0.9763 0.2166 373.9329 1202.7993)" class="st1" width="18" height="70.7"/>
	
		<rect x="510.5" y="356.3" transform="matrix(0.7197 -0.6943 0.6943 0.7197 -113.9277 458.6229)" class="st1" width="1" height="28.2"/>
	
		<rect x="1345.2" y="134.6" transform="matrix(0.6786 -0.7345 0.7345 0.6786 328.5779 1035.2423)" class="st1" width="4.2" height="15.2"/>
	
		<rect x="22.2" y="794.5" transform="matrix(0.8856 -0.4645 0.4645 0.8856 -366.2534 105.5588)" class="st1" width="17.8" height="3.2"/>
	
		<rect x="1652.7" y="514.5" transform="matrix(0.1925 -0.9813 0.9813 0.1925 825.705 2057.0151)" class="st1" width="20.1" height="24.5"/>
	
		<rect x="735.9" y="183.3" transform="matrix(0.2557 -0.9667 0.9667 0.2557 369.5818 865.7605)" class="st1" width="22.3" height="19.2"/>
	
		<rect x="149.5" y="487.2" transform="matrix(0.9996 -2.873726e-02 2.873726e-02 0.9996 -14.1293 4.6073)" class="st1" width="7.5" height="13.3"/>
	
		<rect x="1146.8" y="745.6" transform="matrix(0.786 -0.6182 0.6182 0.786 -214.96 872.1681)" class="st1" width="11" height="1.9"/>
	
		<rect x="1476.8" y="725.6" transform="matrix(0.6338 -0.7735 0.7735 0.6338 -14.658 1435.8896)" class="st1" width="64.9" height="15.6"/>
	
		<rect x="-10.2" y="38.6" transform="matrix(0.3146 -0.9492 0.9492 0.3146 -34.99 28.9497)" class="st1" width="25.4" height="0.1"/>
	
		<rect x="635.7" y="671.3" transform="matrix(0.9887 -0.1496 0.1496 0.9887 -94.5634 104.3245)" class="st1" width="20.7" height="18.5"/>
	
		<rect x="327.2" y="-25.9" transform="matrix(0.1785 -0.9839 0.9839 0.1785 272.5765 327.9656)" class="st1" width="11" height="53.3"/>
	
		<rect x="1830" y="403.4" transform="matrix(0.9684 -0.2494 0.2494 0.9684 -43.0051 474.7439)" class="st1" width="44.1" height="7.3"/>
	
		<rect x="1042.5" y="537.8" transform="matrix(6.429262e-02 -0.9979 0.9979 6.429262e-02 443.1947 1572.8213)" class="st1" width="35.5" height="24.5"/>
	
		<rect x="1168.5" y="360.1" transform="matrix(0.3453 -0.9385 0.9385 0.3453 417.8173 1356.5015)" class="st1" width="25.2" height="37.3"/>
	
		<rect x="1526.1" y="10" transform="matrix(0.8216 -0.5701 0.5701 0.8216 257.489 875.5782)" class="st1" width="2.8" height="32.8"/>
	
		<rect x="1520.5" y="277.7" transform="matrix(0.9729 -0.2311 0.2311 0.9729 -24.5935 360.5246)" class="st1" width="12.1" height="15.1"/>
	
		<rect x="353.1" y="182" transform="matrix(0.8252 -0.5649 0.5649 0.8252 -44.8695 243.0763)" class="st1" width="34.3" height="24"/>
	
		<rect x="1829.4" y="15.5" transform="matrix(0.6322 -0.7748 0.7748 0.6322 642.0482 1437.444)" class="st1" width="11.3" height="54"/>
	
		<rect x="635.3" y="469.9" transform="matrix(0.9267 -0.3758 0.3758 0.9267 -130.6219 286.0459)" class="st1" width="65.5" height="15.9"/>
	
		<rect x="1317.3" y="776.1" transform="matrix(0.1003 -0.995 0.995 0.1003 415.7212 2034.6327)" class="st1" width="31.2" height="22.7"/>
	
		<rect x="1133.1" y="173.7" transform="matrix(0.341 -0.9401 0.9401 0.341 597.3923 1215.0493)" class="st1" width="64.4" height="15.5"/>
	
		<rect x="1860" y="627.7" transform="matrix(0.6729 -0.7398 0.7398 0.6729 131.2165 1588.9861)" class="st1" width="4.4" height="36.8"/>
	
		<rect x="855.9" y="518.2" transform="matrix(0.7113 -0.7029 0.7029 0.7113 -132.0027 760.6137)" class="st1" width="7.9" height="45.5"/>
	
		<rect x="305.8" y="785.7" transform="matrix(0.1028 -0.9947 0.9947 0.1028 -509.0131 1027.4601)" class="st1" width="18.4" height="20.3"/>
	
		<rect x="183.8" y="616.7" transform="matrix(9.112906e-02 -0.9958 0.9958 9.112906e-02 -475.4206 787.3893)" class="st1" width="19.6" height="74.9"/>
	
		<rect x="369.9" y="450.7" transform="matrix(8.181312e-02 -0.9966 0.9966 8.181312e-02 -118.073 815.2609)" class="st1" width="27.1" height="42"/>
	
		<rect x="271.8" y="335.7" transform="matrix(0.1105 -0.9939 0.9939 0.1105 -94.0525 576.3495)" class="st1" width="6.3" height="10"/>
	
		<rect x="493.6" y="771.5" transform="matrix(0.1898 -0.9818 0.9818 0.1898 -368.5665 1142.5117)" class="st1" width="28.7" height="46.2"/>
	
		<rect x="1249.4" y="-10.7" transform="matrix(0.7339 -0.6792 0.6792 0.7339 327.7869 852.2281)" class="st1" width="4.5" height="36.9"/>
	
		<rect x="7.4" y="621.1" transform="matrix(0.1834 -0.983 0.983 0.1834 -619.1005 528.564)" class="st1" width="2.4" height="31.7"/>
	
		<rect x="1317.9" y="400.2" transform="matrix(0.5866 -0.8099 0.8099 0.5866 226.9995 1253.8284)" class="st1" width="47.5" height="8.7"/>
	
		<rect x="852" y="24.7" transform="matrix(0.9568 -0.2908 0.2908 0.9568 23.7552 253.9018)" class="st1" width="28.1" height="44.7"/>
	
		<rect x="1002.3" y="166.5" transform="matrix(0.9834 -0.1817 0.1817 0.9834 -19.2315 186.7923)" class="st1" width="15.2" height="63.7"/>
	
		<rect x="1482.4" y="468.9" transform="matrix(0.9958 -9.111111e-02 9.111111e-02 0.9958 -36.9192 137.276)" class="st1" width="5.4" height="8.1"/>
	
		<rect x="1770.8" y="275.3" transform="matrix(0.8755 -0.4833 0.4833 0.8755 80.2607 898.322)" class="st1" width="24.8" height="36.3"/>
	
		<rect x="18" y="391.7" transform="matrix(0.9999 -1.567964e-02 1.567964e-02 0.9999 -6.2336 0.3741)" class="st1" width="5.5" height="12"/>
	
		<rect x="1675.4" y="5.7" transform="matrix(0.5573 -0.8303 0.8303 0.5573 734.6552 1413.4573)" class="st1" width="34.8" height="24.2"/>
	
		<rect x="761.8" y="346.3" transform="matrix(0.809 -0.5879 0.5879 0.809 -69.6375 519.7972)" class="st1" width="6.3" height="41.4"/>
	
		<rect x="573.7" y="276.3" transform="matrix(0.4518 -0.8921 0.8921 0.4518 78.7489 696.364)" class="st1" width="64.6" height="15.5"/>
	
		<rect x="720.8" y="9.7" transform="matrix(0.4197 -0.9077 0.9077 0.4197 386.9307 682.5712)" class="st1" width="12.9" height="58"/>
	
		<rect x="1673.9" y="700.6" transform="matrix(0.4761 -0.8794 0.8794 0.4761 262.7628 1844.6896)" class="st1" width="11.3" height="2.5"/>
	
		<rect x="852.4" y="187.4" transform="matrix(9.934089e-02 -0.9951 0.9951 9.934089e-02 600.2472 1049.8723)" class="st1" width="55.4" height="11.9"/>
	
		<rect x="1479.7" y="146.8" transform="matrix(0.8817 -0.4718 0.4718 0.8817 106.3586 728.5081)" class="st1" width="52.4" height="10.7"/>
	
		<rect x="1375.7" y="276.7" transform="matrix(0.1778 -0.9841 0.9841 0.1778 869.1055 1593.7844)" class="st1" width="25.2" height="0.2"/>
	
		<rect x="1009.6" y="792" transform="matrix(0.9634 -0.2679 0.2679 0.9634 -178.5378 302.7519)" class="st1" width="21.2" height="27.3"/>
	
		<rect x="534.5" y="492.8" transform="matrix(0.966 -0.2584 0.2584 0.966 -108.7882 158.3067)" class="st1" width="26.8" height="0.4"/>
	
		<rect x="762.7" y="646.3" transform="matrix(0.4767 -0.8791 0.8791 0.4767 -160.4696 1031.6726)" class="st1" width="47.3" height="8.6"/>
	
		<rect x="481.9" y="208.9" transform="matrix(0.9926 -0.1218 0.1218 0.9926 -23.258 62.6485)" class="st1" width="38" height="25.4"/>
	
		<rect x="1161.1" y="582.7" transform="matrix(0.9966 -8.189034e-02 8.189034e-02 0.9966 -46.5771 97.8446)" class="st1" width="16.9" height="68.1"/>
	<rect x="240.4" y="187.8" transform="matrix(0.2026 -0.9793 0.9793 0.2026 4.91 390.4128)" class="st1" width="3.6" height="8.8"/>
	
		<rect x="272.8" y="548.6" transform="matrix(1.294383e-02 -0.9999 0.9999 1.294383e-02 -281.7877 836.5864)" class="st1" width="20.2" height="24.8"/>
	
		<rect x="1627.4" y="369.1" transform="matrix(0.4452 -0.8954 0.8954 0.4452 582.046 1687.9745)" class="st1" width="51.6" height="10.3"/>
	
		<rect x="39.3" y="128.2" transform="matrix(0.6022 -0.7983 0.7983 0.6022 -106.0251 97.6287)" class="st1" width="11.3" height="54"/>
	
		<rect x="1886.7" y="736.4" transform="matrix(1 -5.736114e-03 5.736114e-03 1 -4.3636 10.8739)" class="st1" width="13.5" height="59.6"/>
	
		<rect x="757.8" y="772.2" transform="matrix(0.8285 -0.5599 0.5599 0.8285 -311.5929 567.65)" class="st1" width="26.6" height="40.8"/>
	
		<rect x="111.8" y="47.7" transform="matrix(6.526604e-02 -0.9979 0.9979 6.526604e-02 80.3267 198.1671)" class="st1" width="68.3" height="17"/>
	
		<rect x="1779.8" y="530.5" transform="matrix(0.999 -4.543820e-02 4.543820e-02 0.999 -23.3186 81.6298)" class="st1" width="8.3" height="46.5"/>
	
		<rect x="1414.5" y="646.4" transform="matrix(0.497 -0.8678 0.8678 0.497 146.8197 1559.9934)" class="st1" width="8.9" height="13.8"/>
	
		<rect x="1362.9" y="9.8" transform="matrix(0.1023 -0.9948 0.9948 0.1023 1214.3052 1384.3293)" class="st1" width="22.5" height="19.3"/>
	
		<rect x="1069.7" y="312.7" transform="matrix(0.9588 -0.2839 0.2839 0.9588 -48.2035 320.1597)" class="st1" width="21.2" height="27.4"/>
	<rect x="391" y="284.1" transform="matrix(0.9903 -0.139 0.139 0.9903 -39.751 58.3201)" class="st1" width="13.5" height="59.4"/>
	
		<rect x="1570.2" y="615.2" transform="matrix(0.2462 -0.9692 0.9692 0.2462 590.2943 1992.1892)" class="st1" width="11.4" height="2.8"/>
	
		<rect x="1553.8" y="397.2" transform="matrix(0.8241 -0.5665 0.5665 0.8241 44.4799 956.7809)" class="st1" width="17.9" height="19.1"/>
	
		<rect x="143.3" y="746.9" transform="matrix(0.1355 -0.9908 0.9908 0.1355 -643.3912 827.081)" class="st1" width="17.9" height="70.6"/>
	
		<rect x="1866.5" y="183.3" transform="matrix(0.713 -0.7012 0.7012 0.713 406.0203 1365.3716)" class="st1" width="8.7" height="6.8"/>
	
		<rect x="406.4" y="77.1" transform="matrix(9.951681e-03 -1 1 9.951681e-03 345.3985 513.2137)" class="st1" width="50.9" height="10.1"/>
	
		<rect x="506.3" y="593" transform="matrix(0.9976 -6.929478e-02 6.929478e-02 0.9976 -40.2453 38.5103)" class="st1" width="57.3" height="12.6"/>
	
		<rect x="1232.7" y="498.9" transform="matrix(0.1549 -0.9879 0.9879 0.1549 532.8411 1656.6149)" class="st1" width="4.1" height="36"/>
	
		<rect x="660.7" y="762.1" transform="matrix(0.7558 -0.6548 0.6548 0.7558 -360.0511 634.5351)" class="st1" width="20.1" height="75.9"/>
	
		<rect x="239.5" y="438.3" transform="matrix(0.4927 -0.8702 0.8702 0.4927 -262.2265 447.4425)" class="st1" width="26.3" height="20.8"/>
	
		<rect x="942.7" y="561" transform="matrix(0.2781 -0.9605 0.9605 0.2781 137.136 1328.8597)" class="st1" width="20" height="24.4"/>
	
		<rect x="1253.5" y="301" transform="matrix(2.814305e-02 -0.9996 0.9996 2.814305e-02 921.5233 1551.0022)" class="st1" width="9.8" height="1.2"/>
	
		<rect x="582.3" y="143.7" transform="matrix(0.2139 -0.9769 0.9769 0.2139 291.3564 715.8348)" class="st1" width="16.2" height="66.4"/>
	
		<rect x="1569.5" y="774.9" transform="matrix(0.2839 -0.9589 0.9589 0.2839 382.5909 2088.1707)" class="st1" width="39.6" height="26.1"/>
	
		<rect x="982.6" y="691.2" transform="matrix(0.9227 -0.3854 0.3854 0.9227 -190.3547 441.7896)" class="st1" width="48.2" height="9"/>
	
		<rect x="1724.5" y="391.4" transform="matrix(0.9767 -0.2144 0.2144 0.9767 -46.0959 383.3028)" class="st1" width="38.1" height="25.5"/>
	
		<rect x="1106.9" y="24.4" transform="matrix(0.9423 -0.3348 0.3348 0.9423 55.099 382.6862)" class="st1" width="61.3" height="14.2"/>
	<rect x="300" y="90.5" transform="matrix(0.1471 -0.9891 0.9891 0.1471 167.336 396.103)" class="st1" width="26.8" height="21"/>
	
		<rect x="1642.6" y="251.7" transform="matrix(0.9959 -9.034813e-02 9.034813e-02 0.9959 -17.7792 150.7004)" class="st1" width="26.3" height="40.1"/>
	
		<rect x="160.6" y="380.3" transform="matrix(0.9937 -0.1118 0.1118 0.9937 -42.0465 20.4202)" class="st1" width="1" height="9.9"/>
	
		<rect x="131.8" y="154.7" transform="matrix(0.9151 -0.4032 0.4032 0.9151 -53.7197 69.4184)" class="st1" width="12.4" height="15.2"/>
	
		<rect x="823" y="275.1" transform="matrix(0.9732 -0.2298 0.2298 0.9732 -42.3182 196.6726)" class="st1" width="0.8" height="9.9"/>
	
		<rect x="691.9" y="559.9" transform="matrix(0.2696 -0.963 0.963 0.2696 -42.5297 1101.0619)" class="st1" width="25.2" height="37.4"/>
	
		<rect x="1315.2" y="678.3" transform="matrix(0.1548 -0.9879 0.9879 0.1548 439.4759 1886.1173)" class="st1" width="13.8" height="15.8"/>
	
		<rect x="758.3" y="487.6" transform="matrix(0.9573 -0.289 0.289 0.9573 -109.2816 241.4024)" class="st1" width="9.4" height="6.5"/>
	
		<rect x="1220.2" y="109" transform="matrix(0.1647 -0.9864 0.9864 0.1647 932.9055 1338.365)" class="st1" width="72.8" height="18.8"/>
	
		<rect x="-2.7" y="274.4" transform="matrix(0.5887 -0.8084 0.8084 0.5887 -226.1449 123.392)" class="st1" width="21.8" height="19"/>
	
		<rect x="1477.7" y="552.2" transform="matrix(0.8012 -0.5985 0.5985 0.8012 -40.5879 1009.7758)" class="st1" width="43" height="27.5"/>
	
		<rect x="1070.4" y="94.2" transform="matrix(3.845979e-02 -0.9993 0.9993 3.845979e-02 930.244 1165.8528)" class="st1" width="1" height="10.7"/>
	
		<rect x="108.6" y="593" transform="matrix(0.8421 -0.5394 0.5394 0.8421 -308.4766 160.1988)" class="st1" width="21.4" height="27.8"/>
	
		<rect x="1760.4" y="163.5" transform="matrix(2.975268e-02 -0.9996 0.9996 2.975268e-02 1561.8109 1942.673)" class="st1" width="42.3" height="6.6"/>
	
		<rect x="171" y="277.7" transform="matrix(7.095329e-02 -0.9975 0.9975 7.095329e-02 -99.4678 458.7138)" class="st1" width="51" height="10.1"/>
	
		<rect x="231.2" y="747" transform="matrix(0.3666 -0.9304 0.9304 0.3666 -544.8693 697.1624)" class="st1" width="16.8" height="3.6"/>
	
		<rect x="893.6" y="428.8" transform="matrix(0.288 -0.9576 0.9576 0.288 206.8693 1180.6736)" class="st1" width="7.6" height="44.8"/>
	
		<rect x="950.4" y="63.6" transform="matrix(0.5418 -0.8405 0.8405 0.5418 354.8933 853.6646)" class="st1" width="19.9" height="75.5"/>
	
		<rect x="1685.1" y="606.9" transform="matrix(0.9765 -0.2155 0.2155 0.9765 -93.7665 382.7742)" class="st1" width="46.7" height="29"/>
	<rect x="592" y="388" transform="matrix(0.2349 -0.972 0.972 0.2349 62.7706 883.1483)" class="st1" width="0.7" height="27.5"/>
	
		<rect x="409.9" y="712.8" transform="matrix(0.8096 -0.5869 0.5869 0.8096 -356.3172 385.7479)" class="st1" width="13.2" height="58.7"/>
	
		<rect x="289.9" y="692.5" transform="matrix(0.472 -0.8816 0.8816 0.472 -459.3053 640.7427)" class="st1" width="30.6" height="22.5"/>
	
		<rect x="701.3" y="281.2" transform="matrix(0.9607 -0.2775 0.2775 0.9607 -50.4589 207.144)" class="st1" width="10.8" height="1.4"/>
	<rect x="-2.4" y="497" transform="matrix(0.9816 -0.1908 0.1908 0.9816 -99.2342 9.8825)" class="st1" width="8.2" height="46.3"/>
	
		<rect x="859.4" y="781.7" transform="matrix(0.9924 -0.123 0.123 0.9924 -91.6979 113.2401)" class="st1" width="24.6" height="35.8"/>
	<rect x="1409" y="71.7" transform="matrix(0.5579 -0.8299 0.8299 0.5579 553.675 1219.6267)" class="st1" width="25" height="37"/>
	
		<rect x="419.6" y="530" transform="matrix(0.4873 -0.8732 0.8732 0.4873 -239.3423 661.0758)" class="st1" width="47.3" height="8.6"/>
	
		<rect x="1601.1" y="14.8" transform="matrix(0.8565 -0.5162 0.5162 0.8565 218.5653 834.6246)" class="st1" width="17.9" height="19.1"/>
	
		<rect x="1068.2" y="612.2" transform="matrix(0.9999 -1.520140e-02 1.520140e-02 0.9999 -9.5696 16.3881)" class="st1" width="10.1" height="50.9"/>
	
		<rect x="1870.1" y="474.5" transform="matrix(0.2434 -0.9699 0.9699 0.2434 930.0359 2203.3743)" class="st1" width="14.5" height="62.1"/>
	
		<rect x="1690.1" y="779.6" transform="matrix(0.9944 -0.106 0.106 0.9944 -75.5309 184.0361)" class="st1" width="8.3" height="46.5"/>
	
		<rect x="632.4" y="-9.4" transform="matrix(0.9972 -7.459319e-02 7.459319e-02 0.9972 1.1623 48.1134)" class="st1" width="24.6" height="35.7"/>
	
		<rect x="523.7" y="726" transform="matrix(0.9293 -0.3692 0.3692 0.9293 -232.0333 259.0742)" class="st1" width="74.2" height="19.4"/>
	
		<rect x="1233" y="774" transform="matrix(0.9983 -5.785219e-02 5.785219e-02 0.9983 -43.8499 73.4211)" class="st1" width="26.3" height="40"/>
	
		<rect x="1139.5" y="282" transform="matrix(0.7914 -0.6113 0.6113 0.7914 68.0195 763.4349)" class="st1" width="26.2" height="0.2"/>
	
		<rect x="1879" y="266.5" transform="matrix(0.1455 -0.9894 0.9894 0.1455 1341.1654 2101.8352)" class="st1" width="16.6" height="16"/>
	
		<rect x="211.1" y="45.1" transform="matrix(0.2128 -0.9771 0.9771 0.2128 100.3743 268.1672)" class="st1" width="11.1" height="53.4"/>
	
		<rect x="1048.3" y="385" transform="matrix(0.1268 -0.9919 0.9919 0.1268 509.083 1410.2096)" class="st1" width="14.5" height="61.9"/>
	
		<rect x="1420.7" y="735.1" transform="matrix(0.9315 -0.3637 0.3637 0.9315 -171.9542 568.4464)" class="st1" width="5.7" height="11.5"/>
	
		<rect x="1127.8" y="488.9" transform="matrix(0.8829 -0.4696 0.4696 0.8829 -100.3638 590.662)" class="st1" width="12.5" height="15.3"/>
	
		<rect x="1228.8" y="555" transform="matrix(0.7264 -0.6872 0.6872 0.7264 -67.3343 1012.3456)" class="st1" width="18.3" height="71.5"/>
	
		<rect x="196.6" y="574.6" transform="matrix(0.9994 -3.550873e-02 3.550873e-02 0.9994 -20.3563 7.5958)" class="st1" width="14.1" height="4.6"/>
	
		<rect x="1427.3" y="337.2" transform="matrix(0.5878 -0.809 0.809 0.5878 316.0512 1299.9474)" class="st1" width="12.8" height="5.1"/>
	
		<rect x="269.6" y="263.4" transform="matrix(0.4661 -0.8847 0.8847 0.4661 -82.3408 390.4778)" class="st1" width="25.6" height="0"/>
	
		<rect x="1006" y="320.1" transform="matrix(0.1074 -0.9942 0.9942 0.1074 558.1311 1315.153)" class="st1" width="11" height="53.2"/>
	
		<rect x="864.6" y="617.8" transform="matrix(0.9402 -0.3406 0.3406 0.9402 -160.0113 334.1311)" class="st1" width="14.3" height="10.1"/>
	
		<rect x="1374.9" y="490.7" transform="matrix(0.8203 -0.5719 0.5719 0.8203 -32.0393 891.7368)" class="st1" width="56.6" height="12.3"/>
	
		<rect x="493.4" y="694.2" transform="matrix(0.4666 -0.8845 0.8845 0.4666 -351.7045 812.1602)" class="st1" width="8.3" height="7"/>
	
		<rect x="833.3" y="361.1" transform="matrix(0.2093 -0.9779 0.9779 0.2093 308.9431 1105.6442)" class="st1" width="9.7" height="1.4"/>
	
		<rect x="51.7" y="332.1" transform="matrix(0.9403 -0.3402 0.3402 0.9403 -110.5055 48.2604)" class="st1" width="61.3" height="14.2"/>
	
		<rect x="925" y="232.6" transform="matrix(0.8571 -0.5152 0.5152 0.8571 8.8958 517.8253)" class="st1" width="25.6" height="20.5"/>
	
		<rect x="1588.6" y="165.5" transform="matrix(0.9597 -0.2809 0.2809 0.9597 14.6554 458.727)" class="st1" width="38.2" height="25.5"/>
	
		<rect x="1292.1" y="237" transform="matrix(0.8002 -0.5997 0.5997 0.8002 118.1201 837.398)" class="st1" width="47.9" height="8.9"/>
	<rect x="660" y="151.2" transform="matrix(0.899 -0.4379 0.4379 0.899 -1.7797 306.063)" class="st1" width="5.7" height="11.4"/>
	
		<rect x="1613.6" y="86" transform="matrix(0.9841 -0.1778 0.1778 0.9841 6.6772 291.1066)" class="st1" width="28.1" height="44.5"/>
	
		<rect x="920.9" y="-9.3" transform="matrix(0.6906 -0.7233 0.7233 0.6906 288.3848 683.0603)" class="st1" width="43.2" height="27.5"/>
	
		<rect x="975.9" y="474.9" transform="matrix(0.1895 -0.9819 0.9819 0.1895 337.6846 1363.8334)" class="st1" width="38.2" height="5"/>
	
		<rect x="271.2" y="621.6" transform="matrix(7.991705e-02 -0.9968 0.9968 7.991705e-02 -384.7345 857.9041)" class="st1" width="2.3" height="31.6"/>
	
		<rect x="58.2" y="696.6" transform="matrix(0.7273 -0.6863 0.6863 0.7273 -467.6499 239.9215)" class="st1" width="19.7" height="23.7"/>
	
		<rect x="1762.4" y="75.4" transform="matrix(0.2788 -0.9603 0.9603 0.2788 1195.1829 1756.3824)" class="st1" width="9.3" height="14"/>
	
		<rect x="407.5" y="-1.6" transform="matrix(0.9723 -0.2338 0.2338 0.9723 10.2159 96.3454)" class="st1" width="7.8" height="13.4"/>
	
		<rect x="1616.2" y="429.6" transform="matrix(0.2312 -0.9729 0.9729 0.2312 814.7234 1931.9198)" class="st1" width="27" height="41.8"/>
	
		<rect x="491.8" y="133.2" transform="matrix(0.9616 -0.2744 0.2744 0.9616 -17.5195 144.9655)" class="st1" width="35.4" height="3.9"/>
	
		<rect x="1710.2" y="199.2" transform="matrix(0.8551 -0.5185 0.5185 0.8551 136.9317 924.6745)" class="st1" width="24.8" height="36.4"/>
	
		<rect x="1834.2" y="714.9" transform="matrix(0.671 -0.7414 0.7414 0.671 72.2357 1599.4764)" class="st1" width="8.7" height="6.8"/>
	
		<rect x="778.4" y="708.2" transform="matrix(0.8436 -0.537 0.537 0.8436 -257.836 548.9081)" class="st1" width="69.6" height="17.5"/>
	
		<rect x="474.6" y="474.3" transform="matrix(0.4047 -0.9144 0.9144 0.4047 -149.1394 721.3071)" class="st1" width="9.6" height="1.7"/>
	
		<rect x="1320.7" y="312" transform="matrix(0.56 -0.8285 0.8285 0.56 320.2166 1251.2201)" class="st1" width="34.8" height="24.2"/>
	
		<rect x="774.6" y="560.7" transform="matrix(0.221 -0.9753 0.9753 0.221 57.5985 1216.1355)" class="st1" width="31" height="22.7"/>
	
		<rect x="805.6" y="103.4" transform="matrix(0.8579 -0.5138 0.5138 0.8579 56.4052 430.6122)" class="st1" width="2.3" height="19.9"/>
	
		<rect x="1458.8" y="202.9" transform="matrix(0.1602 -0.9871 0.9871 0.1602 1007.4357 1630.1826)" class="st1" width="5.8" height="40.3"/>
	
		<rect x="410.3" y="158.1" transform="matrix(0.1643 -0.9864 0.9864 0.1643 205.2088 572.0632)" class="st1" width="59.8" height="13.6"/>
	
		<rect x="1438.8" y="15.7" transform="matrix(0.4619 -0.8869 0.8869 0.4619 763.3373 1293.0709)" class="st1" width="17" height="3.5"/>
	
		<rect x="1707.5" y="476.8" transform="matrix(0.2683 -0.9633 0.9633 0.2683 802.4423 2016.8459)" class="st1" width="42.6" height="6.8"/>
	
		<rect x="675.7" y="372.7" transform="matrix(0.8386 -0.5447 0.5447 0.8386 -102.673 431.5975)" class="st1" width="2.8" height="32.8"/>
	
		<rect x="412.3" y="389.6" transform="matrix(0.492 -0.8706 0.8706 0.492 -127.9595 562.3578)" class="st1" width="11.3" height="2.5"/>
	
		<rect x="721.9" y="715.7" transform="matrix(0.9906 -0.1364 0.1364 0.9906 -93.1543 105.5484)" class="st1" width="3.1" height="33.4"/>
	
		<rect x="627.3" y="529" transform="matrix(0.7194 -0.6946 0.6946 0.7194 -207.3423 594.5275)" class="st1" width="9.7" height="49.9"/>
	
		<rect x="1525.6" y="473.2" transform="matrix(0.9554 -0.2952 0.2952 0.9554 -72.7495 482.0979)" class="st1" width="70" height="17.7"/>
	
		<rect x="1213.3" y="668.8" transform="matrix(0.2224 -0.975 0.975 0.2224 306.3404 1731.9294)" class="st1" width="51.2" height="10.2"/>
	
		<rect x="947.2" y="753.1" transform="matrix(0.9323 -0.3618 0.3618 0.9323 -210.8033 397.2935)" class="st1" width="16.7" height="16.9"/>
	
		<rect x="1204.5" y="434.4" transform="matrix(0.9043 -0.4269 0.4269 0.9043 -72.6754 558.2291)" class="st1" width="8.1" height="13.5"/>
	
		<rect x="1798.9" y="342.5" transform="matrix(0.7295 -0.684 0.684 0.7295 255.8086 1344.0835)" class="st1" width="56.4" height="12.3"/>
	
		<rect x="1866.7" y="85.4" transform="matrix(0.3259 -0.9454 0.9454 0.3259 1151.6018 1852.5302)" class="st1" width="16.3" height="66.5"/>
	
		<rect x="1803.2" y="443.2" transform="matrix(0.3169 -0.9485 0.9485 0.3169 794.249 2029.6591)" class="st1" width="5.9" height="40.6"/>
	
		<rect x="1508.9" y="641.9" transform="matrix(0.9594 -0.2822 0.2822 0.9594 -125.017 453.2715)" class="st1" width="4.7" height="37.6"/>
	
		<rect x="996.3" y="620.9" transform="matrix(0.5383 -0.8427 0.8427 0.5383 -63.0854 1133.2712)" class="st1" width="13" height="6.7"/>
	
		<rect x="1783.7" y="657.7" transform="matrix(0.9251 -0.3798 0.3798 0.9251 -119.0012 728.0444)" class="st1" width="4" height="15.8"/>
	
		<rect x="1049.6" y="225.9" transform="matrix(0.9415 -0.337 0.337 0.9415 -18.0884 374.9303)" class="st1" width="42.6" height="27.3"/>
	
		<rect x="1418.6" y="564" transform="matrix(0.9512 -0.3086 0.3086 0.9512 -104.471 468.8414)" class="st1" width="22.4" height="1.3"/>
	
		<rect x="235.4" y="9.9" transform="matrix(0.999 -4.468001e-02 4.468001e-02 0.999 -0.221 11.0366)" class="st1" width="22.7" height="1.2"/>
	
		<rect x="943.3" y="419.2" transform="matrix(0.946 -0.3242 0.3242 0.946 -87.5849 333.0866)" class="st1" width="25.3" height="20.4"/>
	<rect x="60.9" y="7.3" transform="matrix(0.4067 -0.9135 0.9135 0.4067 38.5135 79.054)" class="st1" width="38.5" height="5.1"/>
	
		<rect x="875.7" y="277.7" transform="matrix(0.4363 -0.8998 0.8998 0.4363 241.8627 962.2899)" class="st1" width="26.4" height="20.8"/>
	
		<rect x="1786.6" y="192.5" transform="matrix(0.9682 -0.2501 0.2501 0.9682 -0.1117 456.3883)" class="st1" width="18.6" height="72.2"/>
	
		<rect x="493.7" y="256" transform="matrix(0.115 -0.9934 0.9934 0.115 156.8587 754.3511)" class="st1" width="16.2" height="66.2"/>
	
		<rect x="1269.3" y="62.2" transform="matrix(0.2401 -0.9708 0.9708 0.2401 919.5042 1310.9904)" class="st1" width="55.6" height="11.9"/>
	<rect x="638" y="226.8" transform="matrix(0.651 -0.7591 0.7591 0.651 51.3716 567.4052)" class="st1" width="9.4" height="2.1"/>
	
		<rect x="1514" y="795.2" transform="matrix(0.7561 -0.6545 0.6545 0.7561 -154.829 1197.3406)" class="st1" width="30.1" height="22.3"/>
	
		<rect x="617.6" y="77.2" transform="matrix(0.6245 -0.781 0.781 0.6245 177.5171 537.5884)" class="st1" width="60.5" height="13.9"/>
	
		<rect x="1073.9" y="678.6" transform="matrix(0.722 -0.6919 0.6919 0.722 -167.3347 956.4727)" class="st1" width="65" height="15.7"/>
	
		<rect x="1364.1" y="199.1" transform="matrix(0.9953 -9.683416e-02 9.683416e-02 0.9953 -13.129 135.1874)" class="st1" width="44.3" height="7.4"/>
	
		<rect x="1586.9" y="534.7" transform="matrix(0.9797 -0.2006 0.2006 0.9797 -76.2689 330.0832)" class="st1" width="7.8" height="13.4"/>
	
		<rect x="1083.1" y="145.2" transform="matrix(0.6819 -0.7314 0.7314 0.6819 219.0366 852.4601)" class="st1" width="13.1" height="58.5"/>
	
		<rect x="54.6" y="498.9" transform="matrix(0.5631 -0.8264 0.8264 0.5631 -391.3317 278.3973)" class="st1" width="26.1" height="20.7"/>
	
		<rect x="390.4" y="564.6" transform="matrix(0.7608 -0.649 0.649 0.7608 -276.4409 392.7471)" class="st1" width="8.5" height="13.7"/>
	
		<rect x="465.2" y="625.3" transform="matrix(0.7215 -0.6924 0.6924 0.7215 -300.9064 504.0117)" class="st1" width="21.7" height="1.6"/>
	
		<rect x="1703.4" y="260.6" transform="matrix(0.1903 -0.9817 0.9817 0.1903 1113.6858 1913.4863)" class="st1" width="27" height="41.9"/>
	
		<rect x="1811.7" y="796.5" transform="matrix(0.1225 -0.9925 0.9925 0.1225 817.6661 2529.7244)" class="st1" width="55.4" height="11.9"/>
	
		<rect x="926.7" y="174.4" transform="matrix(0.7692 -0.639 0.639 0.7692 105.3244 643.9766)" class="st1" width="34.8" height="3.6"/>
	
		<rect x="1598.8" y="707.7" transform="matrix(0.7828 -0.6223 0.6223 0.7828 -96.275 1149.8395)" class="st1" width="0.2" height="10.2"/>
	
		<rect x="285.4" y="403.9" transform="matrix(0.8184 -0.5747 0.5747 0.8184 -178.8705 257.562)" class="st1" width="65.2" height="15.8"/>
	
		<rect x="1509.7" y="214.2" transform="matrix(0.3706 -0.9288 0.9288 0.3706 761.0942 1556.5139)" class="st1" width="38.5" height="5.1"/>
	
		<rect x="351.2" y="360.1" transform="matrix(0.5565 -0.8308 0.8308 0.5565 -142.1127 455.8778)" class="st1" width="9.5" height="2"/>
	
		<rect x="1246.6" y="715.7" transform="matrix(0.187 -0.9824 0.9824 0.187 313.716 1836.5813)" class="st1" width="39.7" height="26.1"/>
	
		<rect x="784.6" y="436.9" transform="matrix(0.9665 -0.2566 0.2566 0.9665 -88.7696 222.4774)" class="st1" width="46.8" height="29"/>
	
		<rect x="1264.9" y="406.6" transform="matrix(0.8341 -0.5516 0.5516 0.8341 -17.8339 772.5852)" class="st1" width="21.3" height="18.8"/>
	
		<rect x="149.1" y="200.6" transform="matrix(0.8197 -0.5728 0.5728 0.8197 -100.4065 127.9668)" class="st1" width="8" height="45.8"/>
	
		<rect x="1485.2" y="367.8" transform="matrix(0.6467 -0.7628 0.7628 0.6467 240.2443 1264.6285)" class="st1" width="0" height="10.3"/>
	<rect x="904" y="509.1" transform="matrix(0.853 -0.522 0.522 0.853 -131.6089 559.9304)" class="st1" width="48" height="8.9"/>
	
		<rect x="72.5" y="56.5" transform="matrix(0.9996 -2.911799e-02 2.911799e-02 0.9996 -2.0398 2.1611)" class="st1" width="1.4" height="29.2"/>
	
		<rect x="1221.4" y="155.1" transform="matrix(0.7217 -0.6922 0.6922 0.7217 212.902 902.5421)" class="st1" width="14.8" height="62.9"/>
	<rect x="1614.7" y="638.7" transform="matrix(0.456 -0.89 0.89 0.456 309.0242 1809.041)" class="st1" width="39.3" height="26"/>
	
		<rect x="8.4" y="724.2" transform="matrix(0.5112 -0.8595 0.8595 0.5112 -628.2165 367.3486)" class="st1" width="0.9" height="23.5"/>
	<rect x="1289.8" y="457.2" transform="matrix(0.88 -0.475 0.475 0.88 -62.5212 686.194)" class="st1" width="74.1" height="19.3"/>
	
		<rect x="381.4" y="793.8" transform="matrix(2.641622e-02 -0.9997 0.9997 2.641622e-02 -430.0228 1164.4845)" class="st1" width="2.9" height="18.5"/>
	
		<rect x="583.4" y="775.3" transform="matrix(0.7528 -0.6582 0.6582 0.7528 -369.6819 586.7223)" class="st1" width="25.8" height="20.6"/>
	
		<rect x="74.4" y="414.3" transform="matrix(0.9065 -0.4222 0.4222 0.9065 -170.3073 71.4911)" class="st1" width="3.8" height="11.8"/>
	
		<rect x="537.6" y="318.6" transform="matrix(0.5007 -0.8656 0.8656 0.5007 0.7108 647.1221)" class="st1" width="47.3" height="8.6"/>
	
		<rect x="19.4" y="584.1" transform="matrix(0.7704 -0.6375 0.6375 0.7704 -365.1993 161.1238)" class="st1" width="43.5" height="7.1"/>
	
		<rect x="1075" y="461.1" transform="matrix(0.2687 -0.9632 0.9632 0.2687 333.8967 1380.906)" class="st1" width="2.7" height="18.8"/>
</g>
<g id="Layer_02">
	
		<rect x="502.3" y="388.9" transform="matrix(0.4711 -0.8821 0.8821 0.4711 -78.0854 675.2988)" class="st2" width="43.6" height="27.7"/>
	
		<rect x="583.6" y="430.3" transform="matrix(0.5544 -0.8323 0.8323 0.5544 -112.3174 687.3704)" class="st2" width="4.3" height="36.6"/>
	
		<rect x="1852.8" y="190.6" transform="matrix(0.9673 -0.2538 0.2538 0.9673 11.7992 483.3733)" class="st2" width="52.7" height="10.8"/>
	
		<rect x="1188.9" y="243.8" transform="matrix(0.9961 -8.816586e-02 8.816586e-02 0.9961 -17.5788 109.0957)" class="st2" width="74.6" height="19.5"/>
	
		<rect x="-8.9" y="644.1" transform="matrix(5.294045e-02 -0.9986 0.9986 5.294045e-02 -679.6251 646.3248)" class="st2" width="19.6" height="74.8"/>
	
		<rect x="1831.6" y="766.3" transform="matrix(0.2474 -0.9689 0.9689 0.2474 619.9139 2366.9377)" class="st2" width="4.2" height="36.1"/>
	
		<rect x="1111.3" y="773.3" transform="matrix(0.3603 -0.9328 0.9328 0.3603 -1.6295 1545.8094)" class="st2" width="29.8" height="1.6"/>
	
		<rect x="156.1" y="173.5" transform="matrix(0.8759 -0.4825 0.4825 0.8759 -67.8251 105.385)" class="st2" width="29.8" height="22.2"/>
	
		<rect x="357.6" y="786.9" transform="matrix(0.794 -0.6079 0.6079 0.794 -402.9394 403.8952)" class="st2" width="73.8" height="19.2"/>
	
		<rect x="1537.8" y="379.1" transform="matrix(0.9096 -0.4155 0.4155 0.9096 -32.5964 680.3972)" class="st2" width="18.5" height="72"/>
	
		<rect x="853.5" y="34.4" transform="matrix(0.5565 -0.8308 0.8308 0.5565 356.1563 739.4707)" class="st2" width="34.4" height="3.5"/>
	
		<rect x="787.6" y="736.6" transform="matrix(0.7676 -0.6409 0.6409 0.7676 -298.031 679.6119)" class="st2" width="1" height="28.3"/>
	
		<rect x="1591.7" y="3.8" transform="matrix(0.8217 -0.5699 0.5699 0.8217 278.3685 912.7416)" class="st2" width="12.7" height="15.3"/>
	
		<rect x="236.4" y="468.2" transform="matrix(0.9479 -0.3185 0.3185 0.9479 -142.6576 101.4002)" class="st2" width="4.7" height="37.5"/>
	
		<rect x="1464.2" y="752.4" transform="matrix(0.9824 -0.1869 0.1869 0.9824 -116.9897 291.1222)" class="st2" width="42.4" height="27.2"/>
	
		<rect x="545.9" y="-19.3" transform="matrix(0.9907 -0.1364 0.1364 0.9907 4.8932 74.9062)" class="st2" width="6.5" height="42.1"/>
	
		<rect x="1062.6" y="487.4" transform="matrix(0.9488 -0.316 0.316 0.9488 -99.5298 362.5276)" class="st2" width="10.9" height="1.4"/>
	
		<rect x="1810.1" y="527.5" transform="matrix(0.8493 -0.5279 0.5279 0.8493 -10.765 1037.1356)" class="st2" width="2.3" height="19.9"/>
	
		<rect x="1140.5" y="15.8" transform="matrix(0.7028 -0.7114 0.7114 0.7028 331.6223 827.1868)" class="st2" width="30.4" height="1.9"/>
	
		<rect x="430.4" y="224.6" transform="matrix(0.9471 -0.3209 0.3209 0.9471 -61.057 155.2717)" class="st2" width="20.3" height="76.4"/>
	
		<rect x="892.8" y="267.6" transform="matrix(0.7289 -0.6846 0.6846 0.7289 45.5697 691.4776)" class="st2" width="6.2" height="41.2"/>
	
		<rect x="342.9" y="4" transform="matrix(0.3563 -0.9344 0.9344 0.3563 201.3207 336.5894)" class="st2" width="4.2" height="36.3"/>
	
		<rect x="1379.7" y="562.9" transform="matrix(0.2767 -0.961 0.961 0.2767 457.3202 1756.0835)" class="st2" width="30.9" height="22.6"/>
	
		<rect x="1348.9" y="62.8" transform="matrix(0.5222 -0.8528 0.8528 0.5222 598.243 1200.4023)" class="st2" width="43" height="6.9"/>
	
		<rect x="661.6" y="220.1" transform="matrix(0.5527 -0.8334 0.8334 0.5527 91.179 668.2825)" class="st2" width="13" height="58.2"/>
	
		<rect x="6.9" y="408.9" transform="matrix(0.3458 -0.9383 0.9383 0.3458 -384.635 280.8321)" class="st2" width="4.4" height="14.6"/>
	
		<rect x="1043.5" y="180.6" transform="matrix(0.7893 -0.6139 0.6139 0.7893 88.8709 691.8804)" class="st2" width="18.4" height="71.7"/>
	
		<rect x="537.6" y="691.1" transform="matrix(0.6115 -0.7912 0.7912 0.6115 -331.4364 724.553)" class="st2" width="69.1" height="17.4"/>
	<rect x="42.8" y="-16.9" transform="matrix(0.348 -0.9375 0.9375 0.348 16.4417 60.6815)" class="st2" width="18" height="70.9"/>
	
		<rect x="1423.7" y="218.9" transform="matrix(0.5152 -0.8571 0.8571 0.5152 477.8608 1349.5123)" class="st2" width="16.4" height="66.8"/>
	
		<rect x="1667.2" y="272.9" transform="matrix(0.9711 -0.2387 0.2387 0.9711 -17.5927 407.0443)" class="st2" width="9.5" height="6.5"/>
	
		<rect x="248.4" y="660.8" transform="matrix(0.216 -0.9764 0.9764 0.216 -436.9951 784.0154)" class="st2" width="42.6" height="6.7"/>
	
		<rect x="869.4" y="484.9" transform="matrix(0.5339 -0.8456 0.8456 0.5339 -17.7791 969.7946)" class="st2" width="2.6" height="32.2"/>
	
		<rect x="1859.4" y="335.1" transform="matrix(0.9937 -0.1119 0.1119 0.9937 -30.0535 211.5943)" class="st2" width="20.4" height="76.7"/>
	
		<rect x="976.5" y="635.1" transform="matrix(0.777 -0.6294 0.6294 0.777 -196.6845 764.8471)" class="st2" width="9.7" height="50"/>
	
		<rect x="1860.3" y="4.9" transform="matrix(0.9845 -0.1753 0.1753 0.9845 26.6172 327.8449)" class="st2" width="16.4" height="16.8"/>
	
		<rect x="1644.7" y="638.4" transform="matrix(0.3176 -0.9482 0.9482 0.3176 509.2351 2017.5427)" class="st2" width="23.5" height="33"/>
	
		<rect x="415" y="490.4" transform="matrix(0.7123 -0.7019 0.7019 0.7123 -228.3643 433.8682)" class="st2" width="0.1" height="10.2"/>
	
		<rect x="-0.1" y="224.7" transform="matrix(0.8336 -0.5523 0.5523 0.8336 -127.943 43.8495)" class="st2" width="17.9" height="19.1"/>
	
		<rect x="1301.3" y="378" transform="matrix(0.9915 -0.1299 0.1299 0.9915 -38.9175 173.2971)" class="st2" width="15.9" height="14.2"/>
	
		<rect x="754.8" y="601.5" transform="matrix(0.4823 -0.876 0.876 0.4823 -140.1421 985.6445)" class="st2" width="18.2" height="19.8"/>
	
		<rect x="696.9" y="411.1" transform="matrix(1 -5.176058e-03 5.176058e-03 1 -2.1552 3.7724)" class="st2" width="61.7" height="14.4"/>
	
		<rect x="309.9" y="144" transform="matrix(0.2031 -0.9792 0.9792 0.2031 89.8968 434.6096)" class="st2" width="4.1" height="36.1"/>
	
		<rect x="1170.9" y="613.1" transform="matrix(0.261 -0.9653 0.9653 0.261 250.373 1610.9432)" class="st2" width="12.8" height="57.8"/>
	
		<rect x="669.9" y="53.4" transform="matrix(0.1628 -0.9867 0.9867 0.1628 504.4106 725.8562)" class="st2" width="20.1" height="24.6"/>
	
		<rect x="1274.1" y="746.2" transform="matrix(0.7137 -0.7005 0.7005 0.7137 -160.8278 1113.976)" class="st2" width="16.3" height="15.1"/>
	
		<rect x="1732.5" y="127.2" transform="matrix(0.9467 -0.3222 0.3222 0.9467 45.6005 570.2634)" class="st2" width="26.4" height="40.4"/>
	
		<rect x="1677.9" y="440.3" transform="matrix(0.7515 -0.6598 0.6598 0.7515 103.9921 1232.4688)" class="st2" width="20.1" height="75.9"/>
	
		<rect x="1162.3" y="363.1" transform="matrix(0.1839 -0.9829 0.9829 0.1839 571.3505 1463.4393)" class="st2" width="9.3" height="49"/>
	
		<rect x="794.2" y="159.7" transform="matrix(0.7029 -0.7113 0.7113 0.7029 118.9326 629.9683)" class="st2" width="38.9" height="25.8"/>
	
		<rect x="141.3" y="730.9" transform="matrix(4.658015e-02 -0.9989 0.9989 4.658015e-02 -597.8036 849.555)" class="st2" width="9.6" height="14.1"/>
	
		<rect x="308.2" y="355.9" transform="matrix(0.1664 -0.9861 0.9861 0.1664 -74.8268 638.5857)" class="st2" width="64.1" height="15.4"/>
	
		<rect x="399.2" y="625.8" transform="matrix(0.9998 -1.778421e-02 1.778421e-02 0.9998 -11.2662 7.3729)" class="st2" width="19.3" height="22.7"/>
	<rect x="535.9" y="160" transform="matrix(0.9341 -0.357 0.357 0.9341 -21.8214 210.7841)" class="st2" width="48.3" height="9"/>
	
		<rect x="1556.4" y="548.7" transform="matrix(5.868107e-02 -0.9983 0.9983 5.868107e-02 909.3812 2080.3528)" class="st2" width="2.9" height="18.6"/>
	
		<rect x="93.8" y="512.5" transform="matrix(0.8499 -0.527 0.527 0.8499 -274.5373 137.3861)" class="st2" width="20.1" height="76.1"/>
	
		<rect x="1867.1" y="653" transform="matrix(0.9877 -0.1567 0.1567 0.9877 -80.8258 300.8474)" class="st2" width="2.1" height="20.4"/>
	
		<rect x="106.5" y="271" transform="matrix(0.2956 -0.9553 0.9553 0.2956 -192.8603 317.8297)" class="st2" width="25.2" height="37.4"/>
	
		<rect x="1523.4" y="168.9" transform="matrix(0.419 -0.908 0.908 0.419 730.4644 1501.847)" class="st2" width="30.7" height="22.5"/>
	
		<rect x="978.6" y="786.3" transform="matrix(0.7215 -0.6924 0.6924 0.7215 -271.8699 901.7083)" class="st2" width="13.1" height="5"/>
	
		<rect x="43.1" y="778.6" transform="matrix(0.7902 -0.6129 0.6129 0.7902 -480.1952 196.0444)" class="st2" width="6.3" height="41.4"/>
	
		<rect x="590.8" y="558.8" transform="matrix(0.9584 -0.2854 0.2854 0.9584 -140.1893 193.3291)" class="st2" width="4.7" height="37.5"/>
	
		<rect x="1031.9" y="354.6" transform="matrix(0.6533 -0.7571 0.7571 0.6533 83.7651 915.8536)" class="st2" width="19.8" height="23.8"/>
	
		<rect x="1012" y="67.7" transform="matrix(0.9961 -8.840383e-02 8.840383e-02 0.9961 -3.7456 90.9697)" class="st2" width="26.3" height="40.1"/>
	
		<rect x="208.8" y="20.2" transform="matrix(0.7948 -0.6069 0.6069 0.7948 26.3219 133.6647)" class="st2" width="4.1" height="15.4"/>
	
		<rect x="1186.3" y="515.3" transform="matrix(0.3639 -0.9314 0.9314 0.3639 288.5113 1470.203)" class="st2" width="68.8" height="17.2"/>
	
		<rect x="212.5" y="779.2" transform="matrix(0.3069 -0.9517 0.9517 0.3069 -577.9728 783.5467)" class="st2" width="73" height="18.9"/>
	
		<rect x="544.9" y="266.9" transform="matrix(0.8803 -0.4743 0.4743 0.8803 -64.2477 294.2897)" class="st2" width="12.5" height="15.3"/>
	
		<rect x="1590.3" y="778.1" transform="matrix(0.3492 -0.9371 0.9371 0.3492 319.6391 2031.8044)" class="st2" width="64.4" height="15.5"/>
	
		<rect x="442.6" y="113.2" transform="matrix(0.9999 -1.175162e-02 1.175162e-02 0.9999 -1.5983 5.2705)" class="st2" width="10.1" height="50.9"/>
	
		<rect x="1193.2" y="116.2" transform="matrix(0.6021 -0.7984 0.7984 0.6021 370.9495 1004.8334)" class="st2" width="0.9" height="28"/>
	
		<rect x="208.7" y="308" transform="matrix(0.4408 -0.8976 0.8976 0.4408 -187.976 389.5309)" class="st2" width="19.8" height="75.4"/>
	
		<rect x="1717.5" y="44.8" transform="matrix(0.9066 -0.4219 0.4219 0.9066 138.978 731.1802)" class="st2" width="8.1" height="13.5"/>
	
		<rect x="926.4" y="176.3" transform="matrix(0.4303 -0.9027 0.9027 0.4303 370.6557 942.4695)" class="st2" width="11.3" height="2.6"/>
	
		<rect x="452.4" y="375" transform="matrix(0.2727 -0.9621 0.9621 0.2727 -51.949 730.3632)" class="st2" width="9.4" height="49.1"/>
	
		<rect x="87.7" y="425.9" transform="matrix(0.7325 -0.6808 0.6808 0.7325 -263.093 194.4744)" class="st2" width="56.4" height="12.3"/>
	
		<rect x="918.6" y="395.4" transform="matrix(0.9539 -0.3001 0.3001 0.9539 -79.5865 301.5503)" class="st2" width="46.9" height="29"/>
	
		<rect x="774.5" y="49.3" transform="matrix(1.629055e-02 -0.9999 0.9999 1.629055e-02 714.1116 836.1761)" class="st2" width="15" height="11.8"/>
	
		<rect x="1463.8" y="24" transform="matrix(0.9969 -7.863943e-02 7.863943e-02 0.9969 1.8385 115.2974)" class="st2" width="2.1" height="20.5"/>
	
		<rect x="1425" y="448.5" transform="matrix(0.7818 -0.6236 0.6236 0.7818 34.0594 994.6027)" class="st2" width="26.2" height="0.2"/>
	
		<rect x="1298.5" y="642.1" transform="matrix(0.2148 -0.9766 0.9766 0.2148 392.0979 1779.0314)" class="st2" width="7.9" height="7.1"/>
	
		<rect x="1710.4" y="355.2" transform="matrix(5.942414e-02 -0.9982 0.9982 5.942414e-02 1278.9585 2086.5247)" class="st2" width="72.7" height="18.8"/>
	
		<rect x="1737.3" y="689.1" transform="matrix(8.438438e-03 -1 1 8.438438e-03 1036.4027 2444.3909)" class="st2" width="27" height="21"/>
	
		<rect x="959.5" y="496.5" transform="matrix(0.6305 -0.7762 0.7762 0.6305 -52.4553 945.5502)" class="st2" width="14.8" height="62.7"/>
	
		<rect x="821.9" y="382.3" transform="matrix(3.012141e-02 -0.9995 0.9995 3.012141e-02 428.5044 1207.641)" class="st2" width="29.3" height="1.4"/>
	
		<rect x="1374.9" y="801.7" transform="matrix(0.9179 -0.3969 0.3969 0.9179 -204.6154 616.044)" class="st2" width="22.2" height="1.4"/>
	<rect x="1263" y="16.3" transform="matrix(0.9739 -0.2271 0.2271 0.9739 29.189 289.3713)" class="st2" width="18.2" height="3"/>
	
		<rect x="1568.1" y="96.6" transform="matrix(0.8006 -0.5992 0.5992 0.8006 256.7 978.5135)" class="st2" width="60.9" height="14"/>
	
		<rect x="3.7" y="561.3" transform="matrix(0.8048 -0.5936 0.5936 0.8048 -335.162 114.6061)" class="st2" width="5.8" height="11.1"/>
	
		<rect x="1461.6" y="638.8" transform="matrix(0.9921 -0.1255 0.1255 0.9921 -71.7454 189.2835)" class="st2" width="10" height="50.8"/>
	
		<rect x="1409.9" y="148.2" transform="matrix(0.9998 -1.893752e-02 1.893752e-02 0.9998 -2.6043 27.1067)" class="st2" width="40.1" height="5.7"/>
	
		<rect x="1497.2" y="303.5" transform="matrix(0.9041 -0.4273 0.4273 0.9041 10.0779 679.2737)" class="st2" width="42.7" height="27.3"/>
	
		<rect x="1306.8" y="186.4" transform="matrix(0.9946 -0.104 0.104 0.9946 -13.1321 137.8274)" class="st2" width="16.3" height="16.8"/>
	
		<rect x="1078.1" y="667.4" transform="matrix(0.1787 -0.9839 0.9839 0.1787 209.9083 1631.0076)" class="st2" width="7.6" height="44.7"/>
	
		<rect x="1296.7" y="292.2" transform="matrix(0.5051 -0.8631 0.8631 0.5051 394.0792 1273.4009)" class="st2" width="21.4" height="1.7"/>
	
		<rect x="758.5" y="505.7" transform="matrix(0.7123 -0.7019 0.7019 0.7123 -143.2102 681.5567)" class="st2" width="2.5" height="19.6"/>
	
		<rect x="1704.4" y="578.4" transform="matrix(0.3794 -0.9252 0.9252 0.3794 532.2337 1955.316)" class="st2" width="38.5" height="5.1"/>
	
		<rect x="1333.9" y="479" transform="matrix(0.9853 -0.1707 0.1707 0.9853 -64.6649 235.0937)" class="st2" width="1.3" height="29.1"/>
	
		<rect x="697.6" y="727.7" transform="matrix(0.4364 -0.8998 0.8998 0.4364 -265.7464 1043.4048)" class="st2" width="4.7" height="12.2"/>
	<rect x="-6.7" y="80" transform="matrix(0.9783 -0.2074 0.2074 0.9783 -18.3138 2.2298)" class="st2" width="16.4" height="16.8"/>
	
		<rect x="1808.7" y="261.3" transform="matrix(0.4643 -0.8857 0.8857 0.4643 736.4782 1751.4135)" class="st2" width="14.7" height="11.2"/>
	
		<rect x="320.9" y="487.3" transform="matrix(0.1654 -0.9862 0.9862 0.1654 -233.0898 748.2427)" class="st2" width="9.3" height="49"/>
	
		<rect x="165.7" y="608.9" transform="matrix(2.898729e-02 -0.9996 0.9996 2.898729e-02 -442.7547 786.597)" class="st2" width="35.6" height="24.5"/>
	
		<rect x="1394.6" y="313.8" transform="matrix(0.1954 -0.9807 0.9807 0.1954 785.4331 1659.9774)" class="st2" width="19.7" height="75"/>
	
		<rect x="1839.3" y="84.4" transform="matrix(0.1329 -0.9911 0.9911 0.1329 1508.9178 1903.5873)" class="st2" width="6.3" height="10"/>
	
		<rect x="1788.2" y="425.1" transform="matrix(0.9171 -0.3986 0.3986 0.9171 -23.6299 750.0934)" class="st2" width="8.1" height="13.5"/>
	
		<rect x="1594.4" y="333" transform="matrix(0.1379 -0.9904 0.9904 0.1379 1055.4625 1878.8777)" class="st2" width="25.2" height="0.2"/>
	
		<rect x="483.9" y="792.2" transform="matrix(0.8949 -0.4463 0.4463 0.8949 -302.5101 312.6037)" class="st2" width="56.8" height="12.4"/>
	
		<rect x="496.9" y="483.5" transform="matrix(0.8013 -0.5982 0.5982 0.8013 -211.2362 406.8728)" class="st2" width="20.1" height="76"/>
	
		<rect x="279.9" y="267.5" transform="matrix(0.7226 -0.6912 0.6912 0.7226 -103.6935 281.9065)" class="st2" width="39.1" height="5.3"/>
	
		<rect x="1463.1" y="495.7" transform="matrix(0.7552 -0.6555 0.6555 0.7552 10.8063 1096.3252)" class="st2" width="20.1" height="75.9"/>
	
		<rect x="866.9" y="629.3" transform="matrix(0.8032 -0.5958 0.5958 0.8032 -207.1109 646.6635)" class="st2" width="16.2" height="14.9"/>
	
		<rect x="668.6" y="638.9" transform="matrix(0.3698 -0.9291 0.9291 0.3698 -180.2548 1031.0164)" class="st2" width="2.7" height="19"/>
	
		<rect x="641.8" y="365.6" transform="matrix(0.894 -0.4481 0.4481 0.894 -100.1293 327.9395)" class="st2" width="2.3" height="20"/>
	
		<rect x="865" y="767.4" transform="matrix(0.1246 -0.9922 0.9922 0.1246 -13.1691 1561.886)" class="st2" width="27" height="41.9"/>
	
		<rect x="136.5" y="53.3" transform="matrix(0.7524 -0.6588 0.6588 0.7524 -15.3634 111.4185)" class="st2" width="7.9" height="45.6"/>
	
		<rect x="1104.6" y="275.3" transform="matrix(0.7231 -0.6907 0.6907 0.7231 116.9354 845.6773)" class="st2" width="17.4" height="3.3"/>
	
		<rect x="709.7" y="153.1" transform="matrix(2.972022e-02 -0.9996 0.9996 2.972022e-02 533.1616 869.5545)" class="st2" width="9.6" height="14.1"/>
	<rect x="937.8" y="88.6" transform="matrix(0.993 -0.1183 0.1183 0.993 -4.3111 112.0311)" class="st2" width="7.3" height="7.5"/>
	
		<rect x="1062.9" y="593.6" transform="matrix(0.9704 -0.2415 0.2415 0.9704 -113.0213 283.0368)" class="st2" width="70.1" height="17.7"/>
	
		<rect x="762.9" y="277.6" transform="matrix(0.1366 -0.9906 0.9906 0.1366 380.8463 1000.9377)" class="st2" width="3.5" height="8.9"/>
	
		<rect x="286.7" y="71.1" transform="matrix(0.4705 -0.8824 0.8824 0.4705 87.6618 312.4767)" class="st2" width="35" height="24.2"/>
	
		<rect x="1693.7" y="732.4" transform="matrix(0.1408 -0.99 0.99 0.1408 708.5249 2334.4402)" class="st2" width="11" height="53.3"/>
	
		<rect x="1370.4" y="696.9" transform="matrix(1.788028e-02 -0.9998 0.9998 1.788028e-02 644.0316 2082.9182)" class="st2" width="23.6" height="33.4"/>
	
		<rect x="915.1" y="705.1" transform="matrix(0.8972 -0.4416 0.4416 0.8972 -224.0584 483.954)" class="st2" width="24.8" height="36.3"/>
	
		<rect x="342.7" y="724.2" transform="matrix(0.5835 -0.8121 0.8121 0.5835 -454.8154 585.1758)" class="st2" width="0.8" height="23.7"/>
	
		<rect x="230.4" y="205.4" transform="matrix(9.598561e-02 -0.9954 0.9954 9.598561e-02 -14.9231 438.9143)" class="st2" width="7.5" height="44.6"/>
	
		<rect x="36.4" y="313.6" transform="matrix(0.8167 -0.5771 0.5771 0.8167 -181.1826 80.8882)" class="st2" width="0.6" height="24.1"/>
	
		<rect x="231.4" y="573.4" transform="matrix(0.9964 -8.449066e-02 8.449066e-02 0.9964 -47.9886 23.8616)" class="st2" width="53" height="10.9"/>
	
		<rect x="1574.1" y="679.2" transform="matrix(0.5561 -0.8311 0.8311 0.5561 131.0222 1620.9213)" class="st2" width="17.5" height="17.3"/>
	
		<rect x="1651.4" y="378.1" transform="matrix(0.9995 -3.181478e-02 3.181478e-02 0.9995 -11.5342 53.2011)" class="st2" width="29.2" height="21.9"/>
	
		<rect x="1105.1" y="83.8" transform="matrix(0.9912 -0.1327 0.1327 0.9912 -1.9963 147.5417)" class="st2" width="1" height="9.9"/>
	
		<rect x="629.8" y="490.7" transform="matrix(0.9068 -0.4217 0.4217 0.9068 -148.654 326.8488)" class="st2" width="69.8" height="17.6"/>
	
		<rect x="63.9" y="125.3" transform="matrix(0.9446 -0.3282 0.3282 0.9446 -38.8353 30.5474)" class="st2" width="14.3" height="10.1"/>
	
		<rect x="117.2" y="658.8" transform="matrix(0.9987 -5.042924e-02 5.042924e-02 0.9987 -33.3104 7.111)" class="st2" width="14.2" height="9.7"/>
	
		<rect x="137.7" y="791.1" transform="matrix(5.030962e-02 -0.9987 0.9987 5.030962e-02 -675.283 907.8013)" class="st2" width="4" height="35.9"/>
	
		<rect x="954.4" y="247.8" transform="matrix(0.9072 -0.4206 0.4206 0.9072 -15.8223 437.9338)" class="st2" width="61.2" height="14.2"/>
	
		<rect x="510" y="591" transform="matrix(0.9823 -0.1872 0.1872 0.9823 -103.273 108.4108)" class="st2" width="25.1" height="20.3"/>
	
		<rect x="370.5" y="233" transform="matrix(8.410510e-02 -0.9965 0.9965 8.410510e-02 108.0063 589.1922)" class="st2" width="8" height="5.6"/>
	
		<rect x="938.4" y="5" transform="matrix(0.9997 -2.459680e-02 2.459680e-02 0.9997 4.465746e-02 23.2577)" class="st2" width="14.1" height="9.7"/>
	
		<rect x="4.8" y="481.9" transform="matrix(0.8544 -0.5195 0.5195 0.8544 -249.3101 93.2486)" class="st2" width="74" height="19.3"/>
	
		<rect x="607.1" y="763.3" transform="matrix(0.2314 -0.9729 0.9729 0.2314 -263.7405 1197.8093)" class="st2" width="38.3" height="5"/>
	
		<rect x="1277.9" y="106.8" transform="matrix(1 -1.264292e-03 1.264292e-03 1 -0.1431 1.6548)" class="st2" width="61.7" height="14.4"/>
	
		<rect x="440.8" y="-19.8" transform="matrix(0.1274 -0.9918 0.9918 0.1274 384.123 445.9007)" class="st2" width="9.3" height="48.9"/>
	
		<rect x="692.9" y="336.3" transform="matrix(0.5556 -0.8315 0.8315 0.5556 35.4803 749.3978)" class="st2" width="51.7" height="10.4"/>
	
		<rect x="585.6" y="77.9" transform="matrix(0.1541 -0.9881 0.9881 0.1541 418.1857 651.3458)" class="st2" width="7.9" height="7.1"/>
	
		<rect x="732.9" y="796.1" transform="matrix(0.682 -0.7313 0.7313 0.682 -354.0322 793.0886)" class="st2" width="4.2" height="15.2"/>
	
		<rect x="1192.2" y="774.1" transform="matrix(0.3527 -0.9357 0.9357 0.3527 30.2625 1632.5892)" class="st2" width="5.9" height="40.6"/>
	
		<rect x="477.7" y="71.5" transform="matrix(0.9172 -0.3985 0.3985 0.9172 11.6259 204.4103)" class="st2" width="39.5" height="5.5"/>
	
		<rect x="1588.6" y="206.3" transform="matrix(0.9486 -0.3166 0.3166 0.9486 16.0746 522.2172)" class="st2" width="52.6" height="10.8"/>
	
		<rect x="1775.1" y="609.9" transform="matrix(0.8869 -0.4619 0.4619 0.8869 -89.7678 897.9465)" class="st2" width="28.2" height="44.9"/>
	<rect x="1154.2" y="482.4" transform="matrix(0.9945 -0.105 0.105 0.9945 -44.7886 123.945)" class="st2" width="1" height="9.9"/>
	
		<rect x="354.2" y="570.2" transform="matrix(0.869 -0.4948 0.4948 0.869 -239.1381 257.6019)" class="st2" width="25.5" height="20.5"/>
	
		<rect x="74.8" y="205.1" transform="matrix(0.6408 -0.7677 0.7677 0.6408 -129.7044 135.0652)" class="st2" width="9.4" height="2.1"/>
	
		<rect x="1142" y="563.1" transform="matrix(0.9407 -0.3391 0.3391 0.9407 -123.703 430.64)" class="st2" width="56.9" height="12.5"/>
	
		<rect x="1553" y="738" transform="matrix(0.8908 -0.4543 0.4543 0.8908 -169.9897 791.8714)" class="st2" width="19.6" height="23.3"/>
	
		<rect x="161.5" y="111.7" transform="matrix(2.494591e-02 -0.9997 0.9997 2.494591e-02 71.7879 315.8012)" class="st2" width="72.6" height="18.7"/>
	
		<rect x="1086.5" y="120.2" transform="matrix(1.110793e-02 -0.9999 0.9999 1.110793e-02 926.5924 1252.0387)" class="st2" width="19.6" height="74.7"/>
	
		<rect x="1180" y="446.7" transform="matrix(0.1884 -0.9821 0.9821 0.1884 537.4293 1559.1498)" class="st2" width="64.2" height="15.4"/>
	
		<rect x="434.6" y="692.5" transform="matrix(0.8825 -0.4704 0.4704 0.8825 -288.6104 293.0441)" class="st2" width="15" height="63.2"/>
	
		<rect x="1633" y="519.9" transform="matrix(0.8746 -0.4849 0.4849 0.8746 -53.1297 858.6764)" class="st2" width="0.6" height="24.3"/>
	
		<rect x="1683.6" y="183.1" transform="matrix(0.2847 -0.9586 0.9586 0.2847 1016.9786 1775.1174)" class="st2" width="28.7" height="46.1"/>
	
		<rect x="1508.9" y="618" transform="matrix(0.6655 -0.7464 0.7464 0.6655 40.4577 1353.772)" class="st2" width="43.3" height="27.6"/>
	
		<rect x="811" y="658.9" transform="matrix(0.9922 -0.1244 0.1244 0.9922 -78.5054 106.6836)" class="st2" width="8.3" height="46.4"/>
	
		<rect x="53.5" y="714.7" transform="matrix(0.3661 -0.9306 0.9306 0.3661 -625.2712 513.2929)" class="st2" width="21.2" height="1.8"/>
	
		<rect x="1546.8" y="236.6" transform="matrix(0.5007 -0.8656 0.8656 0.5007 555.587 1464.3546)" class="st2" width="0.9" height="27.8"/>
	
		<rect x="1860.1" y="588.6" transform="matrix(0.9795 -0.2016 0.2016 0.9795 -81.7342 387.9397)" class="st2" width="7.8" height="13.4"/>
	
		<rect x="1772.1" y="193.1" transform="matrix(0.246 -0.9693 0.9693 0.246 1147.24 1878.5109)" class="st2" width="18" height="17.5"/>
	
		<rect x="639.4" y="-3.1" transform="matrix(0.6381 -0.77 0.77 0.6381 230.3002 501.0243)" class="st2" width="17.4" height="17.2"/>
	
		<rect x="985.1" y="320.2" transform="matrix(7.448747e-02 -0.9972 0.9972 7.448747e-02 587.5508 1284.1276)" class="st2" width="0.9" height="10.6"/>
	
		<rect x="1026.7" y="747.7" transform="matrix(0.9597 -0.2812 0.2812 0.9597 -169.5894 327.7527)" class="st2" width="61.4" height="14.2"/>
	
		<rect x="1235.5" y="180.4" transform="matrix(0.5072 -0.8618 0.8618 0.5072 449.3277 1158.6549)" class="st2" width="4.6" height="12.1"/>
	
		<rect x="598.1" y="126" transform="matrix(0.9985 -5.446184e-02 5.446184e-02 0.9985 -6.3215 34.4493)" class="st2" width="61.7" height="14.4"/>
	<rect x="1784.9" y="28.6" transform="matrix(0.848 -0.53 0.53 0.848 252.5523 959.9665)" class="st2" width="29.9" height="22.2"/>
	
		<rect x="926" y="587.3" transform="matrix(0.2978 -0.9546 0.9546 0.2978 106.2606 1337.8459)" class="st2" width="73" height="18.9"/>
	
		<rect x="1212.2" y="318" transform="matrix(0.9953 -9.636024e-02 9.636024e-02 0.9953 -27.0173 118.7065)" class="st2" width="6.6" height="42.1"/>
	
		<rect x="1285.6" y="553.3" transform="matrix(0.4716 -0.8818 0.8818 0.4716 187.4477 1439.24)" class="st2" width="18.2" height="19.8"/>
	<rect x="180" y="415" transform="matrix(0.9 -0.436 0.436 0.9 -166.7453 130.6685)" class="st2" width="42.7" height="27.4"/>
	
		<rect x="1573.4" y="490.7" transform="matrix(0.8413 -0.5406 0.5406 0.8413 -18.5543 931.8632)" class="st2" width="8.3" height="13.6"/>
	
		<rect x="899.2" y="557.1" transform="matrix(0.8184 -0.5746 0.5746 0.8184 -166.0229 621.6416)" class="st2" width="2.8" height="32.8"/>
	
		<rect x="141" y="495.3" transform="matrix(0.8298 -0.5581 0.5581 0.8298 -256.3165 175.9783)" class="st2" width="38.6" height="25.7"/>
	
		<rect x="23.8" y="614.3" transform="matrix(0.7459 -0.6661 0.6661 0.7459 -406.8001 189.7789)" class="st2" width="43.1" height="27.5"/>
	
		<rect x="801.8" y="242.1" transform="matrix(0.979 -0.2038 0.2038 0.979 -33.3365 174.9308)" class="st2" width="61.5" height="14.3"/>
	<rect x="357" y="82.2" transform="matrix(0.9743 -0.2251 0.2251 0.9743 -11.9978 88.1118)" class="st2" width="46.8" height="29"/>
	
		<rect x="1750.5" y="784.8" transform="matrix(0.5689 -0.8224 0.8224 0.5689 105.0183 1789.6622)" class="st2" width="18.1" height="19.6"/>
	
		<rect x="473.9" y="193" transform="matrix(7.332604e-02 -0.9973 0.9973 7.332604e-02 264.1757 678.6841)" class="st2" width="46.7" height="8.4"/>
	
		<rect x="715" y="2.3" transform="matrix(0.9968 -8.003652e-02 8.003652e-02 0.9968 1.4002 58.0869)" class="st2" width="20.6" height="18.5"/>
	
		<rect x="767.7" y="110.7" transform="matrix(0.9997 -2.460477e-02 2.460477e-02 0.9997 -2.7447 18.9516)" class="st2" width="2" height="20.6"/>
	
		<rect x="1535.9" y="42.1" transform="matrix(1.159580e-02 -0.9999 0.9999 1.159580e-02 1474.2358 1585.3646)" class="st2" width="6.3" height="9.8"/>
	
		<rect x="1589.3" y="596" transform="matrix(0.9991 -4.341577e-02 4.341577e-02 0.9991 -24.876 70.3035)" class="st2" width="33.5" height="23.7"/>
	
		<rect x="368.8" y="414" transform="matrix(2.538011e-02 -0.9997 0.9997 2.538011e-02 -71.7684 794.6183)" class="st2" width="5.8" height="40.1"/>
	
		<rect x="495.7" y="296.4" transform="matrix(0.9025 -0.4307 0.4307 0.9025 -92.2315 248.688)" class="st2" width="15" height="63.3"/>
	
		<rect x="853.2" y="100.3" transform="matrix(0.9295 -0.3689 0.3689 0.9295 20.8106 324.5996)" class="st2" width="12.3" height="15.2"/>
	
		<rect x="1881.4" y="488.7" transform="matrix(0.5429 -0.8398 0.8398 0.5429 442.0952 1808.8064)" class="st2" width="2.6" height="19.3"/>
	
		<rect x="1813.2" y="320.9" transform="matrix(0.4631 -0.8863 0.8863 0.4631 697.5499 1800.2351)" class="st2" width="42.9" height="6.9"/>
	
		<rect x="1361.8" y="498.4" transform="matrix(0.2679 -0.9635 0.9635 0.2679 534.4574 1718.9944)" class="st2" width="72.9" height="18.9"/>
	
		<rect x="1007.6" y="154" transform="matrix(0.5742 -0.8187 0.8187 0.5742 308.8676 905.4096)" class="st2" width="34.5" height="3.5"/>
	
		<rect x="1028" y="546.9" transform="matrix(0.9424 -0.3346 0.3346 0.9424 -128.409 380.2357)" class="st2" width="23" height="31.8"/>
	
		<rect x="296.3" y="437.5" transform="matrix(0.7573 -0.6531 0.6531 0.7573 -217.8952 307.9117)" class="st2" width="18" height="19.3"/>
	
		<rect x="1076.1" y="10.9" transform="matrix(0.9211 -0.3894 0.3894 0.9211 76.944 424.6162)" class="st2" width="19.5" height="23.2"/>
	
		<rect x="651.4" y="562.9" transform="matrix(0.9943 -0.1068 0.1068 0.9943 -57.9881 74.0691)" class="st2" width="22.8" height="31.4"/>
	
		<rect x="98.8" y="356.3" transform="matrix(3.728387e-02 -0.9993 0.9993 3.728387e-02 -262.1227 456.3682)" class="st2" width="13.9" height="15.8"/>
	
		<rect x="1101.2" y="432.8" transform="matrix(0.6995 -0.7146 0.7146 0.6995 18.6352 920.7769)" class="st2" width="5.9" height="10.9"/>
	
		<rect x="824.5" y="552.1" transform="matrix(0.5824 -0.8129 0.8129 0.5824 -104.4702 907.4128)" class="st2" width="12.9" height="6.6"/>
	
		<rect x="115.3" y="-30.4" transform="matrix(0.9993 -3.713176e-02 3.713176e-02 0.9993 -5.305380e-02 4.6002)" class="st2" width="17" height="68.2"/>
	
		<rect x="1673.3" y="116" transform="matrix(0.5301 -0.8479 0.8479 0.5301 673.5194 1483.8101)" class="st2" width="4.3" height="36.6"/>
	
		<rect x="216.1" y="708.2" transform="matrix(0.9987 -5.068947e-02 5.068947e-02 0.9987 -36.03 11.9709)" class="st2" width="3.8" height="16.2"/>
	
		<rect x="1727.3" y="498.4" transform="matrix(0.9116 -0.4111 0.4111 0.9116 -55.9125 764.0839)" class="st2" width="42.7" height="27.3"/>
	
		<rect x="1369" y="641.3" transform="matrix(0.3831 -0.9237 0.9237 0.3831 251.8303 1665.6282)" class="st2" width="7.9" height="6"/>
	
		<rect x="920.5" y="462.8" transform="matrix(0.7557 -0.6549 0.6549 0.7557 -85.9696 727.4012)" class="st2" width="23.2" height="32.3"/>
	
		<rect x="1336.5" y="122.2" transform="matrix(0.5713 -0.8208 0.8208 0.5713 480.6386 1183.549)" class="st2" width="73.4" height="19.1"/>
	
		<rect x="165.1" y="548.1" transform="matrix(1.146144e-02 -0.9999 0.9999 1.146144e-02 -359.6573 749.3874)" class="st2" width="68.3" height="17"/>
	
		<rect x="1653.8" y="32.4" transform="matrix(0.1174 -0.9931 0.9931 0.1174 1411.3949 1688.9232)" class="st2" width="4.1" height="35.9"/>
	
		<rect x="1740.3" y="259" transform="matrix(0.3307 -0.9437 0.9437 0.3307 918.4781 1828.8188)" class="st2" width="16.5" height="15.7"/>
	
		<rect x="1812" y="127.7" transform="matrix(0.9351 -0.3543 0.3543 0.9351 62.9963 654.2003)" class="st2" width="11.6" height="54.8"/>
	
		<rect x="467.2" y="618" transform="matrix(0.9709 -0.2394 0.2394 0.9709 -136.7653 130.3862)" class="st2" width="2.2" height="20.3"/>
	
		<rect x="995.4" y="437.4" transform="matrix(0.4741 -0.8805 0.8805 0.4741 136.49 1125.799)" class="st2" width="30.6" height="22.5"/>
</g>
</svg>
